<svg xmlns="http://www.w3.org/2000/svg" width="79.279" height="80.151" viewBox="0 0 79.279 80.151">
  <g id="monkey" transform="translate(-10.591 -9.974)">
    <circle id="Ellipse_47" data-name="Ellipse 47" cx="2.564" cy="2.564" r="2.564" transform="translate(38.58 38.684)"/>
    <circle id="Ellipse_48" data-name="Ellipse 48" cx="2.564" cy="2.564" r="2.564" transform="translate(57.578 38.684)"/>
    <path id="Pfad_25" data-name="Pfad 25" d="M41.981,57.256a2.986,2.986,0,0,0,.806,2.479,2.927,2.927,0,0,0,2.088.829,3.507,3.507,0,0,0,.393-.023,4.275,4.275,0,0,0,3.626-3.626,2.872,2.872,0,0,0-3.286-3.285,4.278,4.278,0,0,0-3.627,3.626Zm2.623-1a2.083,2.083,0,0,1,1.4-.65.923.923,0,0,1,.668.247,1.02,1.02,0,0,1,.233.835,2.282,2.282,0,0,1-1.869,1.87,1.012,1.012,0,0,1-.836-.233C43.75,57.87,43.935,56.923,44.6,56.253Z"/>
    <path id="Pfad_26" data-name="Pfad 26" d="M53,59.332a4.127,4.127,0,0,0,2.417,1.209,3.261,3.261,0,0,0,.393.023,2.923,2.923,0,0,0,2.087-.829,2.979,2.979,0,0,0,.806-2.479,4.275,4.275,0,0,0-3.626-3.626,2.872,2.872,0,0,0-3.286,3.285A4.13,4.13,0,0,0,53,59.332Zm1.01-3.482a.922.922,0,0,1,.668-.247,2.087,2.087,0,0,1,1.4.65c.67.67.854,1.617.4,2.068a1,1,0,0,1-.835.233,2.285,2.285,0,0,1-1.87-1.87A1.018,1.018,0,0,1,54.01,55.85Z"/>
    <path id="Pfad_27" data-name="Pfad 27" d="M21.66,37.18a38.942,38.942,0,0,0-.37,3.916,27.611,27.611,0,0,0-7,18.2c0,17,16.285,30.826,36.3,30.826S86.892,76.3,86.892,59.3a27.684,27.684,0,0,0-7.525-18.785c-.064-1.135-.179-2.25-.338-3.346a11.218,11.218,0,1,0-8.815-18.591,27.3,27.3,0,0,0-39.88.1,11.121,11.121,0,0,0-8.518-3.941A11.221,11.221,0,0,0,21.66,37.18ZM78.646,16.738a9.224,9.224,0,0,1,.037,18.448q-.34-1.7-.83-3.322c.176.016.353.026.532.026a5.927,5.927,0,1,0-4.892-9.254,31.374,31.374,0,0,0-1.932-2.558A9.142,9.142,0,0,1,78.646,16.738ZM74.718,24.58a3.959,3.959,0,1,1,2.4,5.084A33.618,33.618,0,0,0,74.718,24.58ZM50.342,11.974c14.638,0,26.266,12.467,27.047,29a1,1,0,0,0,.266.633A25.781,25.781,0,0,1,84.893,59.3c0,15.9-15.387,28.826-34.3,28.826s-34.3-12.932-34.3-28.826a25.7,25.7,0,0,1,6.735-17.15,1,1,0,0,0,.25-.629C23.834,24.676,35.47,11.974,50.342,11.974ZM23.591,29.587a3.927,3.927,0,1,1,2.216-4.862l.06-.02A33.814,33.814,0,0,0,23.591,29.587ZM21.816,16.738a9.148,9.148,0,0,1,7.179,3.45,31.054,31.054,0,0,0-1.932,2.6,5.94,5.94,0,1,0-4.233,9.052q-.489,1.631-.828,3.346c-.062,0-.123.005-.185.005a9.225,9.225,0,0,1,0-18.45Z"/>
    <path id="Pfad_28" data-name="Pfad 28" d="M50.592,83.894c16.589,0,30.086-11.473,30.086-25.575a22.967,22.967,0,0,0-6.2-15.55,28.544,28.544,0,0,0-7.2-17.783,12.363,12.363,0,0,0-8.719-3.912,11.424,11.424,0,0,0-8.217,3.464,11.382,11.382,0,0,0-12.483-2.609A13.077,13.077,0,0,0,32.9,25.66h0a28.911,28.911,0,0,0-6.62,17.592,22.919,22.919,0,0,0-5.77,15.067C20.506,72.421,34,83.894,50.592,83.894ZM28.011,44.3a1.007,1.007,0,0,0,.25-.629,26.616,26.616,0,0,1,6.152-16.713h0a11.113,11.113,0,0,1,4.193-3.179A9.375,9.375,0,0,1,49.56,26.67a1,1,0,0,0,1.566,0,9.458,9.458,0,0,1,7.434-3.6,10.447,10.447,0,0,1,7.253,3.272A26.626,26.626,0,0,1,72.5,43.225a1,1,0,0,0,.266.633,21.069,21.069,0,0,1,5.917,14.46c0,13-12.6,23.575-28.086,23.575S22.506,71.317,22.506,58.318A21,21,0,0,1,28.011,44.3Z"/>
    <path id="Pfad_29" data-name="Pfad 29" d="M50.592,74c9.621,0,18.038-3.817,21.445-9.727a1,1,0,0,0-1.733-1C67.3,68.492,59.373,72,50.592,72c-8.534,0-16.377-3.376-19.517-8.4a1,1,0,0,0-1.7,1.061C32.924,70.332,41.251,74,50.592,74Z"/>
  </g>
</svg>
