<svg id="icon-elephant" xmlns="http://www.w3.org/2000/svg" width="79.999" height="80" viewBox="0 0 79.999 80">
  <g id="icon-elephant-2" data-name="icon-elephant">
    <path id="Pfad_2" data-name="Pfad 2" d="M61.239,32.213a.949.949,0,1,0,1.9,0,4.769,4.769,0,0,0-9.538,0,.949.949,0,0,0,1.9,0,2.871,2.871,0,0,1,5.742,0Z" transform="translate(-9.687 -9.928)"/>
    <path id="Pfad_3" data-name="Pfad 3" d="M44.824,33.162a.949.949,0,0,0,.949-.949,4.77,4.77,0,0,0-9.539,0,.949.949,0,0,0,1.9,0,2.871,2.871,0,0,1,5.742,0A.949.949,0,0,0,44.824,33.162Z" transform="translate(-9.814 -9.928)"/>
    <path id="Pfad_4" data-name="Pfad 4" d="M54.075,58.019H45.232a.949.949,0,0,0,0,1.9h8.842a.949.949,0,0,0,0-1.9Z" transform="translate(-9.718 -9.938)"/>
    <path id="Pfad_5" data-name="Pfad 5" d="M54.075,64.227H45.232a.949.949,0,1,0,0,1.9h8.842a.949.949,0,1,0,0-1.9Z" transform="translate(-9.718 -9.929)"/>
    <path id="Pfad_6" data-name="Pfad 6" d="M54.075,70.434H45.232a.949.949,0,1,0,0,1.9h8.842a.949.949,0,1,0,0-1.9Z" transform="translate(-9.718 -9.921)"/>
    <path id="Pfad_7" data-name="Pfad 7" d="M87.108,15.55c-3.07-4.408-8.367-6.234-15.318-5.276a36.787,36.787,0,0,0-8.957,2.5A27.932,27.932,0,0,0,50.047,10c-.009,0-.016,0-.024,0s-.016,0-.024,0a27.916,27.916,0,0,0-12.8,2.78,36.764,36.764,0,0,0-8.978-2.506c-6.955-.959-12.249.869-15.318,5.277-3.025,4.343-3.7,9.562-1.94,15.09a25.376,25.376,0,0,0,3.169,6.494c-.888,1.655-3.047,6.456-1.278,11.282,1.189,3.244,3.914,5.787,8.069,7.607a18.619,18.619,0,0,1-2.619.353,2.686,2.686,0,0,0-1.2,5c3.106,1.828,9.205,3.495,20.731,1.28.337,3.683,1.232,16.045-.779,26.15a1,1,0,0,0,.981,1.2H61.962a1,1,0,0,0,.981-1.192c-.032-.163-3.076-15.941-.863-26.183a53.615,53.615,0,0,0,10.128,1.089c5.343,0,8.69-1.135,10.736-2.339a2.686,2.686,0,0,0-1.2-5,18.494,18.494,0,0,1-2.641-.359c4.148-1.82,6.868-4.361,8.056-7.6,1.769-4.826-.39-9.626-1.278-11.282a25.376,25.376,0,0,0,3.169-6.494C90.8,25.112,90.133,19.894,87.108,15.55ZM14.735,47.74c-1.806-4.9,1.4-10.083,1.429-10.135a1,1,0,0,0-.056-1.147,23.013,23.013,0,0,1-3.258-6.481c-1.56-4.961-.99-9.43,1.694-13.284,5.1-7.331,16.181-4.2,20.494-2.611a16.734,16.734,0,0,0-3.045,2.7c-3.568,4.071-4.908,9.68-3.983,16.671a51.62,51.62,0,0,0,4.317,15.279,19.239,19.239,0,0,1-8.251,6.364C19.084,53.462,15.933,50.994,14.735,47.74Zm3.38,11.911a.668.668,0,0,1-.323-.757.652.652,0,0,1,.626-.521,20.527,20.527,0,0,0,5.993-1.254c.015,0,.029-.011.044-.017a20.97,20.97,0,0,0,9.312-6.95c1.539,1.037,4.909,4.1,4.053,10.459C26.679,62.813,20.953,61.323,18.115,59.651ZM39.238,88c2.036-11.592.651-25.046.487-26.536,1.454-8.7-4.052-12.528-5.493-13.367a49.4,49.4,0,0,1-4.24-14.91c-.846-6.395.333-11.472,3.5-15.091C36.941,14.165,42.8,12,50,12c.009,0,.016,0,.024,0s.016,0,.024,0c7.2,0,13.058,2.165,16.5,6.1,3.171,3.619,4.35,8.7,3.5,15.09A49.4,49.4,0,0,1,65.814,48.1c-1.439.837-6.923,4.655-5.5,13.316-2.264,9.122-.255,22.518.45,26.587ZM82.253,58.894a.668.668,0,0,1-.323.757c-2.838,1.671-8.564,3.161-19.7.962-.856-6.361,2.517-9.424,4.053-10.46a20.982,20.982,0,0,0,9.167,6.895.986.986,0,0,0,.214.082,20.53,20.53,0,0,0,5.966,1.244A.652.652,0,0,1,82.253,58.894ZM87.16,29.977A23.013,23.013,0,0,1,83.9,36.458a1,1,0,0,0-.055,1.148c.033.051,3.236,5.2,1.433,10.121-1.193,3.254-4.337,5.723-9.32,7.356a19.392,19.392,0,0,1-8.24-6.357,51.6,51.6,0,0,0,4.316-15.277c.925-6.991-.415-12.6-3.982-16.671a16.738,16.738,0,0,0-3.059-2.706c4.327-1.591,15.368-4.707,20.472,2.621C88.15,20.546,88.72,25.016,87.16,29.977Z" transform="translate(-10.005 -10)"/>
  </g>
</svg>
