<svg xmlns="http://www.w3.org/2000/svg" width="64.852" height="80" viewBox="0 0 64.852 80">
  <g id="giraf" transform="translate(-17.953 -10)">
    <path id="Pfad_11" data-name="Pfad 11" d="M82.24,25.015c-.962-1.545-3.134-2.21-6.118-1.872a19.691,19.691,0,0,0-7.614,2.642,15.081,15.081,0,0,0-3.774,3.223,26.93,26.93,0,0,0-4.289-4.631l3.4-4.748a4.926,4.926,0,1,0-3.462-4.682,4.892,4.892,0,0,0,1.7,3.683l-3.239,4.529a14.447,14.447,0,0,0-17.393.153l-3.349-4.682a4.892,4.892,0,0,0,1.7-3.683,5.091,5.091,0,1,0-3.463,4.682l3.526,4.929A26.989,26.989,0,0,0,35.9,28.844a15.219,15.219,0,0,0-3.647-3.059,19.691,19.691,0,0,0-7.614-2.642c-2.985-.341-5.156.326-6.118,1.872-1.937,3.109,1.347,9.992,6.164,12.919a11.582,11.582,0,0,0,5.555,1.637,54.66,54.66,0,0,0-3.288,18.535c0,12.677,4.5,20.066,13.966,22.737V89a1.012,1.012,0,0,0,2.025,0V81.332a37.42,37.42,0,0,0,7.315.674,37.078,37.078,0,0,0,7.6-.725V89a1.012,1.012,0,0,0,2.025,0V80.766C69.15,78.029,73.56,70.659,73.56,58.107a54.663,54.663,0,0,0-3.282-18.519,11.6,11.6,0,0,0,5.8-1.654C80.893,35.007,84.176,28.125,82.24,25.015ZM65.387,12A2.948,2.948,0,1,1,62.4,14.948,2.969,2.969,0,0,1,65.387,12ZM31.8,14.948A2.984,2.984,0,1,1,34.783,17.9,2.969,2.969,0,0,1,31.8,14.948Zm18.455,7.377c10.606,0,20.3,15.469,21.205,33.118-3.645-3.473-11.678-5.8-21.2-5.8-9.544,0-17.569,2.328-21.208,5.8C29.952,37.792,39.649,22.325,50.255,22.325ZM25.743,36.231c-3.98-2.419-6.718-8.214-5.5-10.168.512-.821,2.068-1.168,4.163-.933a17.564,17.564,0,0,1,6.784,2.358,12.828,12.828,0,0,1,3.5,3.076c-.364.552-.722,1.117-1.07,1.709A43.757,43.757,0,0,0,31,37.591,9.574,9.574,0,0,1,25.743,36.231ZM50.255,80.006c-9.683,0-20.76-2.388-21.257-20.616.523-4.638,11.408-7.752,21.26-7.752,12.525,0,20.777,4,21.254,7.71C71.031,77.615,59.945,80.006,50.255,80.006ZM69.506,37.578a43.747,43.747,0,0,0-2.612-5.3c-.311-.53-.63-1.041-.954-1.538a12.709,12.709,0,0,1,3.629-3.247,17.564,17.564,0,0,1,6.784-2.358c2.1-.235,3.651.112,4.163.933,1.217,1.955-1.521,7.749-5.5,10.168A9.559,9.559,0,0,1,69.506,37.578Z"/>
    <path id="Pfad_12" data-name="Pfad 12" d="M59.114,58.785c-2.286-.375-4.841,1.341-5.817,3.907h0a4.7,4.7,0,0,0,.151,4.017,3.4,3.4,0,0,0,2.444,1.679,3.922,3.922,0,0,0,.637.051,5.942,5.942,0,0,0,5.18-3.958,4.7,4.7,0,0,0-.151-4.017A3.4,3.4,0,0,0,59.114,58.785Zm.7,4.975c-.625,1.643-2.275,2.845-3.6,2.63A1.373,1.373,0,0,1,55.2,65.7a2.747,2.747,0,0,1-.014-2.287c.625-1.642,2.277-2.843,3.6-2.629a1.373,1.373,0,0,1,1.016.691A2.747,2.747,0,0,1,59.816,63.76Z" transform="translate(0.432 -0.082)"/>
    <path id="Pfad_13" data-name="Pfad 13" d="M40.188,58.939a3.092,3.092,0,0,0-2.159,1.814,4.67,4.67,0,0,0,.506,4.123,6.762,6.762,0,0,0,5.441,3.469,3.887,3.887,0,0,0,.941-.112,3.09,3.09,0,0,0,2.159-1.813,4.669,4.669,0,0,0-.505-4.123C45.168,59.872,42.366,58.4,40.188,58.939Zm5.024,6.689a1.071,1.071,0,0,1-.784.64c-1.283.312-3.215-.807-4.141-2.407a2.753,2.753,0,0,1-.394-2.318,1.071,1.071,0,0,1,.784-.64c1.277-.322,3.214.806,4.14,2.407A2.754,2.754,0,0,1,45.213,65.628Z" transform="translate(0.244 -0.08)"/>
    <path id="Pfad_14" data-name="Pfad 14" d="M54.105,44.937a1.012,1.012,0,0,0,1.012-1.012,2.69,2.69,0,0,1,5.38,0,1.012,1.012,0,1,0,2.025,0,4.715,4.715,0,0,0-9.429,0A1.012,1.012,0,0,0,54.105,44.937Z" transform="translate(0.434 -0.027)"/>
    <path id="Pfad_15" data-name="Pfad 15" d="M38.327,44.937a1.012,1.012,0,0,0,1.012-1.012,2.69,2.69,0,0,1,5.379,0,1.012,1.012,0,0,0,2.025,0,4.714,4.714,0,0,0-9.428,0A1.012,1.012,0,0,0,38.327,44.937Z" transform="translate(0.239 -0.027)"/>
  </g>
</svg>
