<svg xmlns="http://www.w3.org/2000/svg" width="80.205" height="80.002" viewBox="0 0 80.205 80.002">
  <g id="icon-lion" transform="translate(-450.228 -105)">
    <path id="Pfad_18" data-name="Pfad 18" d="M59.3,41.9a5.327,5.327,0,0,0-5.341,5.3,1,1,0,0,0,2,0,3.341,3.341,0,0,1,6.682,0,1,1,0,0,0,2,0A5.327,5.327,0,0,0,59.3,41.9Z" transform="translate(444.289 95.001)"/>
    <path id="Pfad_19" data-name="Pfad 19" d="M40.572,41.9a5.327,5.327,0,0,0-5.341,5.3,1,1,0,0,0,2,0,3.342,3.342,0,0,1,6.683,0,1,1,0,0,0,2,0A5.327,5.327,0,0,0,40.572,41.9Z" transform="translate(436.534 95.001)"/>
    <path id="Pfad_20" data-name="Pfad 20" d="M66.349,18.023c-3.629.441-6.758,3.191-8.4,5.869A36.26,36.26,0,0,0,50,23.045h-.03a36.194,36.194,0,0,0-8.026.865c-1.636-2.681-4.769-5.44-8.4-5.881a11.069,11.069,0,0,0-12.308,9.643,11.85,11.85,0,0,0,4.682,10.472,28.457,28.457,0,0,0-.489,11.094,57.374,57.374,0,0,0,5.051,17.581A11.187,11.187,0,0,0,38.928,79a12.872,12.872,0,0,0,22.09.014,11.174,11.174,0,0,0,8.495-12.232,57.415,57.415,0,0,0,5.033-17.541,28.4,28.4,0,0,0-.5-11.151,11.845,11.845,0,0,0,4.615-10.421A11.072,11.072,0,0,0,66.349,18.023Zm-43.128,9.89a9.06,9.06,0,0,1,10.081-7.9c2.727.331,5.193,2.391,6.612,4.435a25.491,25.491,0,0,0-3.974,1.57,5.508,5.508,0,0,0-3.552-2.227,5.123,5.123,0,0,0-5.7,4.462,5.41,5.41,0,0,0,1.645,4.392,18.4,18.4,0,0,0-1.754,3.442A9.874,9.874,0,0,1,23.221,27.913Zm6.65,2.7c-.113.129-.218.265-.327.4a3.379,3.379,0,0,1-.867-2.515,3.123,3.123,0,0,1,3.47-2.718,3.374,3.374,0,0,1,2.033,1.23A19.019,19.019,0,0,0,29.872,30.614ZM49.978,83.266a10.878,10.878,0,0,1-8.335-3.921h.014A11.273,11.273,0,0,0,50,75.63a11.273,11.273,0,0,0,8.314,3.714A10.88,10.88,0,0,1,49.978,83.266Zm8.366-5.92a9.276,9.276,0,0,1-7.529-3.889,1.038,1.038,0,0,0-1.628,0,9.25,9.25,0,1,1-7.529-14.618h.852a6.243,6.243,0,0,0-.725,3.048,8.194,8.194,0,1,0,16.388,0,6.243,6.243,0,0,0-.725-3.048h.9a9.253,9.253,0,0,1,0,18.507ZM56.171,61.887a6.194,6.194,0,1,1-12.388,0c0-1.8.642-4.2,6.194-4.2S56.171,60.085,56.171,61.887ZM72.564,48.975a57.854,57.854,0,0,1-3.856,14.734,11.271,11.271,0,0,0-10.364-6.871H55.42a10.945,10.945,0,0,0-5.442-1.149,10.945,10.945,0,0,0-5.442,1.149H41.657a11.27,11.27,0,0,0-10.377,6.9,57.826,57.826,0,0,1-3.869-14.765c-.955-7.218.378-12.952,3.964-17.043,3.89-4.439,10.5-6.885,18.612-6.887S64.709,27.492,68.6,31.932C72.185,36.023,73.519,41.757,72.564,48.975ZM70.512,31.11c-.135-.166-.267-.335-.409-.5a19.07,19.07,0,0,0-4.438-3.686,3.523,3.523,0,0,1,2.12-1.278,3.262,3.262,0,0,1,3.625,2.84A3.528,3.528,0,0,1,70.512,31.11Zm2.857,4.924a18.413,18.413,0,0,0-1.661-3.275,5.559,5.559,0,0,0,1.688-4.51,5.257,5.257,0,0,0-5.852-4.584,5.659,5.659,0,0,0-3.65,2.289,25.611,25.611,0,0,0-3.9-1.524c1.42-2.039,3.88-4.09,6.6-4.42a9.056,9.056,0,0,1,10.081,7.9A9.87,9.87,0,0,1,73.37,36.034Z" transform="translate(440.348 95.001)"/>
    <path id="Pfad_21" data-name="Pfad 21" d="M88.65,36.409A1,1,0,0,0,89.985,35.3c-.992-5.609-5.023-10.386-6.771-12.236a16.773,16.773,0,0,1,5.968-2.568,1,1,0,0,0,.337-1.838C81.506,13.792,75.6,13.716,72.9,14.066A10.109,10.109,0,0,1,74.6,11.7a1,1,0,0,0-.715-1.7c-8.132,0-12.623,2.34-14.87,4.135.144-.869.361-1.893.62-2.882a1,1,0,0,0-1.091-1.246A12.27,12.27,0,0,0,50,14.819a12.27,12.27,0,0,0-8.545-4.812,1,1,0,0,0-1.091,1.246c.259.991.476,2.017.622,2.883C38.738,12.341,34.248,10,26.113,10a1,1,0,0,0-.715,1.7A10.109,10.109,0,0,1,27.1,14.066c-2.708-.349-8.611-.274-16.624,4.589a1,1,0,0,0,.337,1.838,16.773,16.773,0,0,1,5.968,2.568c-1.748,1.85-5.779,6.626-6.771,12.236a1,1,0,0,0,1.335,1.111,27.567,27.567,0,0,1,5.061-1.387C13.965,38.378,9.129,47.227,10,63.914a1,1,0,0,0,1.771.583c.03-.036,2.6-3.126,5.63-4.117-1.275,3.9-3.709,13.928.615,24.272a1,1,0,0,0,1.915-.259c.289-2.268,1.619-8.415,4.119-9.968,1.023,3.153,5.6,11.522,25.753,15.556a1,1,0,0,0,.393,0c20.147-4.034,24.729-12.4,25.752-15.556,2.5,1.554,3.829,7.7,4.119,9.967a1,1,0,0,0,1.915.259c4.324-10.344,1.89-20.372.615-24.272,3.026.991,5.6,4.081,5.63,4.117A1,1,0,0,0,90,63.914c.872-16.687-3.964-25.536-6.409-28.892A27.567,27.567,0,0,1,88.65,36.409ZM88.086,61.5c-1.6-1.451-4.182-3.3-6.986-3.412a.981.981,0,0,0-.863.432,1,1,0,0,0-.1.96,35.31,35.31,0,0,1,1.185,20.957c-.867-3.355-2.625-7.788-5.926-8.316A1,1,0,0,0,74.246,73c-.01.1-1.285,10.323-24.246,14.976C27.227,83.364,25.766,73.1,25.754,73a1,1,0,0,0-1-.9.96.96,0,0,0-.158.013c-3.3.528-5.059,4.959-5.926,8.314A35.444,35.444,0,0,1,19.86,59.475a1,1,0,0,0-.96-1.391c-2.8.112-5.381,1.96-6.986,3.412-.388-18.993,7.143-26.557,7.22-26.632a1,1,0,0,0-.246-1.616c-1.4-.7-4.417.034-6.49.687,1.718-5.634,6.507-10.174,6.56-10.224a1,1,0,0,0-.016-1.475A16.177,16.177,0,0,0,13.579,19.2c8.891-4.676,14.458-2.916,14.512-2.9a1,1,0,0,0,1.323-.855,5.671,5.671,0,0,0-1.168-3.384c9.96.575,12.925,5.084,12.952,5.126a1,1,0,0,0,1.752-.079c.441-.9.114-3.046-.283-4.845a9.74,9.74,0,0,1,6.4,4.818,1,1,0,0,0,.91.585h.049a1,1,0,0,0,.91-.585,9.838,9.838,0,0,1,6.4-4.817c-.4,1.8-.724,3.946-.283,4.843a1,1,0,0,0,.847.554,1.029,1.029,0,0,0,.9-.469c.031-.048,3-4.559,12.956-5.133a5.671,5.671,0,0,0-1.168,3.384,1,1,0,0,0,1.323.855c.058-.021,5.557-1.825,14.513,2.9a16.184,16.184,0,0,0-5.364,3.039,1,1,0,0,0-.016,1.475c.053.05,4.842,4.59,6.56,10.224-2.073-.652-5.088-1.386-6.49-.687a1,1,0,0,0-.246,1.616C80.945,34.939,88.481,42.413,88.086,61.5Z" transform="translate(440.331 95.001)"/>
  </g>
</svg>
