<svg xmlns="http://www.w3.org/2000/svg" width="67.372" height="80.004" viewBox="0 0 67.372 80.004">
  <g id="noun_hippo_1137901" transform="translate(-18.14 -8.996)">
    <path id="Pfad_22" data-name="Pfad 22" d="M74.983,10.487a18.073,18.073,0,0,0-7.352,4.378,13.908,13.908,0,0,0-2.95,4.311A23.812,23.812,0,0,0,50.1,13.8a23.815,23.815,0,0,0-14.583,5.371,13.9,13.9,0,0,0-2.95-4.311,18.084,18.084,0,0,0-7.352-4.378c-3.053-.894-5.561-.56-7.062.942-1.476,1.475-2.062,4.289-1.567,7.527a14.911,14.911,0,0,0,3.81,8.079,10.845,10.845,0,0,0,5.951,2.975,45.416,45.416,0,0,0-5.8,22.252c0,7.819,2.177,13.149,5.546,16.78,0,.023-.011.043-.01.066C26.654,80.824,37.205,90,50.1,90c12.818,0,23.366-9.116,24.013-20.754a.928.928,0,0,0-.026-.183c3.379-3.632,5.563-8.966,5.563-16.8a45.416,45.416,0,0,0-5.8-22.252,10.845,10.845,0,0,0,5.95-2.975,14.925,14.925,0,0,0,3.81-8.079c.494-3.238-.092-6.053-1.567-7.527C80.545,9.928,78.035,9.594,74.983,10.487ZM21.81,25.622a12.869,12.869,0,0,1-3.247-6.966c-.392-2.574-.007-4.8,1-5.812.946-.946,2.8-1.107,5.085-.437a15.991,15.991,0,0,1,6.5,3.872,11.621,11.621,0,0,1,2.74,4.24q-.628.559-1.236,1.157a8.466,8.466,0,0,0-2.329-3.994c-2.229-2.229-6.584-4.32-8.636-2.268-1.959,1.958-.731,6.873,1.649,9.254a7.157,7.157,0,0,0,5.019,2.056c.019,0,.036,0,.055,0q-.486.693-.947,1.414A8.974,8.974,0,0,1,21.81,25.622Zm2.946-2.367c-1.962-1.962-2.484-5.591-1.649-6.426a1.122,1.122,0,0,1,.8-.243A8.436,8.436,0,0,1,28.915,19.1c1.91,1.91,2.309,4.175,1.472,5.012C29.446,25.046,26.6,25.1,24.756,23.255ZM50.1,74.584c-11.847,0-19.61-2.663-23.791-8.385,0-.022.015-.041.016-.064C26.961,54.71,37.4,45.76,50.1,45.76c12.755,0,23.188,8.986,23.774,20.465C69.685,71.929,61.928,74.584,50.1,74.584Zm6.06,1.76c1.51-.131,3.031-.33,4.536-.613v4.918a.72.72,0,0,1-.719.719h-3.1a.72.72,0,0,1-.719-.719V76.344ZM39.5,75.731c1.505.283,3.026.482,4.537.613v4.305a.72.72,0,0,1-.719.719h-3.1a.72.72,0,0,1-.719-.719V75.731ZM50.1,88c-11.054,0-20.221-7.284-21.8-16.926A24.357,24.357,0,0,0,37.5,75.3v5.347a2.722,2.722,0,0,0,2.719,2.719h3.1a2.722,2.722,0,0,0,2.719-2.719V76.481c1.382.073,2.745.1,4.061.1s2.678-.03,4.061-.1v4.168a2.722,2.722,0,0,0,2.719,2.719h3.1A2.722,2.722,0,0,0,62.7,80.649V75.3a24.332,24.332,0,0,0,9.211-4.238C70.329,80.7,61.135,88,50.1,88ZM75.546,63.383C73.53,52.179,62.893,43.76,50.1,43.76c-12.764,0-23.424,8.424-25.448,19.614a26.185,26.185,0,0,1-2.1-11.11c0-19.081,13.133-36.458,27.554-36.458S77.654,33.183,77.654,52.264A26.181,26.181,0,0,1,75.546,63.383ZM71.284,19.1a8.436,8.436,0,0,1,5-2.511,1.124,1.124,0,0,1,.8.243c.835.835.312,4.464-1.649,6.426-1.85,1.85-4.692,1.791-5.63.854C68.976,23.271,69.374,21.007,71.284,19.1Zm10.352-.441a12.869,12.869,0,0,1-3.247,6.966,8.988,8.988,0,0,1-5.658,2.513q-.46-.722-.947-1.414c.019,0,.036,0,.054,0a7.158,7.158,0,0,0,5.019-2.056c2.381-2.381,3.608-7.3,1.649-9.254-2.052-2.053-6.409.039-8.636,2.268a8.472,8.472,0,0,0-2.329,3.993q-.606-.6-1.236-1.157a11.648,11.648,0,0,1,2.74-4.239,15.991,15.991,0,0,1,6.5-3.872c2.288-.67,4.139-.51,5.085.437C81.643,13.855,82.027,16.082,81.636,18.656Z" transform="translate(1.727 -1)"/>
    <circle id="Ellipse_45" data-name="Ellipse 45" cx="2.564" cy="2.564" r="2.564" transform="translate(35.171 32.455)"/>
    <circle id="Ellipse_46" data-name="Ellipse 46" cx="2.564" cy="2.564" r="2.564" transform="translate(59.9 32.455)"/>
    <path id="Pfad_23" data-name="Pfad 23" d="M45.194,53.276c-1.812,0-3.177,2.1-3.177,4.872s1.365,4.871,3.177,4.871,3.178-2.094,3.178-4.871S47.006,53.276,45.194,53.276Zm0,7.744c-.415,0-1.177-1.09-1.177-2.871s.762-2.872,1.177-2.872,1.178,1.091,1.178,2.872S45.609,61.02,45.194,61.02Z"/>
    <path id="Pfad_24" data-name="Pfad 24" d="M55,53.276c-1.812,0-3.178,2.1-3.178,4.872S53.192,63.019,55,63.019s3.178-2.094,3.178-4.871S56.815,53.276,55,53.276Zm0,7.744c-.415,0-1.178-1.09-1.178-2.871s.763-2.872,1.178-2.872,1.178,1.091,1.178,2.872S55.419,61.02,55,61.02Z"/>
  </g>
</svg>
