<svg xmlns="http://www.w3.org/2000/svg" xmlns:xlink="http://www.w3.org/1999/xlink" width="2440" height="590" viewBox="0 0 2440 590">
  <defs>
    <filter id="Rechteck_12">
      <feOffset dy="3" input="SourceAlpha"/>
      <feGaussianBlur stdDeviation="25" result="blur"/>
      <feFlood flood-opacity="0.161" result="color"/>
      <feComposite operator="out" in="SourceGraphic" in2="blur"/>
      <feComposite operator="in" in="color"/>
      <feComposite operator="in" in2="SourceGraphic"/>
    </filter>
    <clipPath id="clip-path">
      <rect id="Rechteck_10" data-name="Rechteck 10" width="669.471" height="320.5" fill="#212121"/>
    </clipPath>
    <clipPath id="clip-path-2">
      <rect id="Rechteck_10-2" data-name="Rechteck 10" width="474.829" height="320.5" fill="#212121"/>
    </clipPath>
  </defs>
  <g id="Gruppe_11" data-name="Gruppe 11" transform="translate(181 -556)">
    <g data-type="innerShadowGroup">
      <rect id="Rechteck_12-2" data-name="Rechteck 12" width="2440" height="357" transform="translate(-181 789)" fill="#f4f4f4"/>
      <g transform="matrix(1, 0, 0, 1, -181, 556)" filter="url(#Rechteck_12)">
        <rect id="Rechteck_12-3" data-name="Rechteck 12" width="2440" height="357" transform="translate(0 233)" fill="#fff"/>
      </g>
    </g>
    <g id="tree" transform="translate(1512 556)">
      <g id="Gruppe_5" data-name="Gruppe 5" clip-path="url(#clip-path)">
        <path id="Pfad_30" data-name="Pfad 30" d="M344.883,320.5c1.815-1.815,3.536-3.853.924-6.108-9.2-7.947-10.258-19.339-13.136-30.034-3.933-14.612,1.142-27.051,9.007-38.791,4.233-6.322,10.772-10.07,17.48-13.037,18.52-8.19,33.267-21.472,48.293-34.5,2.853-2.472,2.793-6.208,5.535-8.63a71.575,71.575,0,0,1,21.608-12.89c16.6-6.516,33.921-10.853,50.662-16.937,8.939-3.249,17.9-6.478,26.969-9.324a70.706,70.706,0,0,0,37.7-27.847c1.716-2.454,3.549-4.837,5.09-7.4a30.465,30.465,0,0,1,11.537-11.21c6.757-3.777,11.245-9.055,9.348-17.618-.668-3.015,1.674-1.73,2.8-1.624,8,.753,16.023,1.811,24.026.569,11.035-1.714,21.907,1.432,32.895.734,3.351-.214,6.825.515,8.524-3.749.83-2.084,2.239-.129,3.355.237,1.134.372,2.511,1.249,3.169-.313.5-1.194-.9-1.865-1.75-2.421-2.325-1.528-4.646-.985-7.171.681-.109-3.543,2.082-4.835,4.428-5.886,3.529-1.58,7.386-1.743,11.134-2.384,2.011-.344,4.467.347,5.648-2.178.179-.383.43-.7.7-.164,2.092,4.163,3.927,1.165,5.822-.187v-3.27c-1.634-1.49-3.57-1.073-5.442-.788a34.454,34.454,0,0,1-8.084.387c-9.507-.772-18.626-4.063-28.219-4.147-1.816-.015-3.409-.437-4.3-2.41-1.162-2.565-2.872-2.841-5.578-1.655-2.142.939-5.25,2.834-6.776-1.353a1.291,1.291,0,0,0-2.1-.409c-2.208,1.684-3.741,1.458-5.05-1.152-.5-.987-1.965-.767-3.038-.783-2.859-.04-5.72-.022-8.579,0-3.978.031-7.937.166-10.742-3.532-.86-1.133-2.358-1.219-3.759-1.249-11.074-.247-22.243,1.4-33.182-1.648a2.586,2.586,0,0,0-1.612.083c-3.5,1.546-6.711.446-9.78-1.137-8.843-4.564-18.049-6.756-28.02-4.888-1.393.261-3.418.8-4.213-.625-1.976-3.542-4.753-2.252-7.48-1.728-2.138.411-4.253.97-6.406,1.243-1.16.147-3.2.007-3.133-1.126.305-4.981-3.037-2.74-5.1-2.766-3.74-.046-8.052,1.907-10.084-3.365-.259-.673-1.223-.323-1.87-.145-.787.216-1.839.641-2.19-.276-1.333-3.48-4.461-3.107-7.172-3.447a133.317,133.317,0,0,1-22.364-4.488,27.688,27.688,0,0,0-11.714-.664c-10.043,1.272-20.084,4.318-30.256.666a3.012,3.012,0,0,0-2,0c-4.356,1.837-8.634,4.331-13.355.943a.412.412,0,0,0-.394,0c-3.16,3.372-5.441.19-7.985-1.055-1.757-.859-3.96-.676-5.4-2.3-2.591,2.431-5.223.625-7.024-.73-1.949-1.467-.58-4.115.24-6.037,1.306-3.06.781-4.511-2.78-4.676-3.2-.148-6.669.045-8.1-4.039-.491-1.4-1.973-.443-2.91-.3a46.3,46.3,0,0,1-13.839-.128c-1.343-.2-3.134-.148-3.7-1.353-1.608-3.436-4.7-3.216-7.6-3.616C310.352.434,302.325,1.5,294.3,1.548c-4.185.026-8.42.344-12.371-1.548h-.818c-1.425.979-.145,2.528-.819,4.015-3.588-3.183-4.648,1.817-7.368,2.141-2.169.258-3.676,4.571-6.789.855-.313-.373-4.749,2.012-6.362,4.417.84.969,1.386.192,1.962.074.673-.138,1.408-.4,1.405.707,0,.667-.527.947-1.088.961-1.628.043-3.257.015-4.908.015-.482,1.188.544,1.258,1.194,1.6.923.484,1.616,1.017.85,2.194-.52.8-.847,1.785-2.131,1.323-2.226-.8-3.091-.023-2.241,2.483-2.614-.842-4.186-3.988-7.538-1.838,1.874,1.948,5.23,2.244,5.738,5.62-8.083.807-16.078.577-23.779-2.042C225.4,21.221,220.8,21.473,218,17.54c-.743-1.044-1.992.24-2.988.474-4.241,1-8.418,3.643-12.772.209-.329-.259-1.253.192-1.886.364-5.511,1.49-10.949,3.409-16.553,4.338-3.419.566-4.432,3.9-7.377,4.715-2.741.757-5.931,1.247-8,2.7-2.158,1.519-5.423,1.387-6.638,4.139-.553,1.254-1.424.973-2.345.944-3.675-.117-7.354-.356-11.026-.278-1.745.037-4.442-1.961-5.036,1.759a5.946,5.946,0,0,1-1.891.009c-7.484-.934-14.961-.249-22.441.039-3.269.125-6.544,1.473-9.751-.938-1.213-.91-3.144.376-4.574,1.135-3.487,1.851-6.919,3.585-11,4.043-4.405.493-2.614,3.366-1.525,5.754-1.865,1.195-3.569-1.438-5.4-.049.956,2.029,2.827,2.762,4.785,3.39.964.309,1.762.818,1.664,1.993s-.964,1.618-1.951,1.75c-3.641.484-7.224,1.032-10.042,3.775a1.976,1.976,0,0,1-1.884.157c-2.728-3.184-5.773-1.26-8.578-.473-5.369,1.509-10.816.943-16.242,1.079-3,.076-6.047-.078-8.151,2.723-.729.97-1.85.965-2.972.988a13.787,13.787,0,0,0-9.149,3.29c-3.418,2.924-8.125,2.891-12.164,4.437-1.685.644-4.962-.1-3.721,3.644.049.148-.244.6-.352.586-5.026-.4-6.84,6.735-12.493,5.274,2.6,2.376,5.865-.748,8.825,1.6-3.239.778-4.3,6.94-8.792,2.145-1.255,2.507,1.575,2.25,1.888,3.56-1.166,1.384-2.657,1.188-4.15,1.214-1.2.021-3.251-.906-3.317.991-.058,1.646,2.129,1.345,3.341,1.462,5.012.481,10.038.9,15.068,1.094,10.476.4,20.968.48,31.429,1.1,1.867.111,5.383-1.763,5.888,2.671.133,1.172,4.325.1,4.622-1.439.18-.934.38-1.388,1.436-1.48,2.839-.251,5.66-.688,8.5-.977a7.327,7.327,0,0,1,7.814,4.1c2.874,5.856,7.845,8.64,13.82,9.679,9.285,1.617,16.778,5.444,22.077,13.722,3.137,4.9,8.881,7.051,14.1,9.394,8.984,4.03,18.467,6.446,28.1,8.316,15.178,2.947,29.244,9.318,43.8,14.189,9.026,3.02,17.993,6.168,26.763,9.9a41.106,41.106,0,0,1,18.27,14.514c11.263,16.221,25.253,29.971,39.878,43.041a52.3,52.3,0,0,1,15.777,25.673c3.14,11.235,7.405,22.257,7.492,34.147.1,13.785-4.422,25.6-15.271,34.588a8.459,8.459,0,0,0-.907.823c-1.054,1.173-2.966,2.213-2.105,4.008.8,1.654,2.869,1.539,4.438,1.237,5.338-1.031,10.5-.945,15.4,1.715h5.723c7.358-4.4,14.717-1.1,22.075,0ZM88.5,91.882c2.846-1.407,5.554-.241,8.856.122-3.534,3.742-6.2,1.871-8.856-.142.521,1.087,1.037,2.176,1.567,3.258.6,1.223.084,1.691-1.133,1.864-5.413.767-8.773-3.322-6.791-8.457q3.19,1.681,6.358,3.354m217.173,12.791c1.326-.65,2.629-1.35,3.981-1.942,8.971-3.923,9.978-3.413,12.2,6.095,3.472,14.853,2.761,16.782-9.724,24.06-3.617,2.108-5.6,4.865-5.891,9.094-.184,2.716-.321,5.634-2.947,8.063-.562-4.248-.042-7.99.291-11.742.617-6.956,1.274-13.9-4.507-19.441-1.434-1.375-1.51-3.385-1.017-5.382.624-2.536,2.484-.662,3.694-1.114a4.424,4.424,0,0,0,2.985-3.072c.432-1.567.723-3.171,1.072-4.757-2.034.713-2.661,2.962-4.385,4.015-1.338.818-2.987,2.662-4.212,1.317a4.73,4.73,0,0,1,.061-6.019,3.384,3.384,0,0,1,1.595-1.2c2.809-.851,5.571-1.984,8.6-1.994.007,1.723-2.087,2.321-1.8,4.023M270.605,91.42a13.053,13.053,0,0,1,1.473,1.405c2.027,2.626,7.462,3.952,3.44,8.995-.253.317.736,1.631,1.154,2.477,2.251,4.547,6.5,6.851,10.581,9.293,5.562,3.331,8.293,8.043,7.7,14.595-.533,5.929-.991,11.865-1.512,18.162-1.159-1-2.176-1.847-3.153-2.734A119.26,119.26,0,0,0,264.8,125.339c-3.639-1.872-3.933-3.461-1.221-6.29,2.209-2.3,3.264-5.14.124-7.356-4.355-3.074-4.408-6.971-3.383-11.554,1.054-4.71.606-9.232-3.152-12.871A3.3,3.3,0,0,1,255.8,84.43c.569-3.46,3.026-5.377,5.941-6.745,2.682-1.258,5.446-1.964,8.325.413-6.208,1.6-7.242,5.091-3.174,9.835a46.873,46.873,0,0,0,3.856,3.62c-.158-2.9-3.06-4.865-2.7-7.929.131-1.1-.288-3.039,1.577-2.562,6.438,1.644,14.171.424,18,8.148.847,1.706,2.788,2.914,4.336,4.22,3.811,3.216,3.836,4.426-.833,5.664-4.207,1.117-5.815,3.192-5.07,7.349a5.269,5.269,0,0,1-.2,1.555c-5.45-1.5-6.309-2.738-6.02-8.388.025-.487-.046-1.211-.359-1.45-2.954-2.251-4.907-5.833-8.874-6.741M399.26,148.838c2.088-.7,2.471-2.452,2.663-3.986a7.532,7.532,0,0,1,5.331-6.608c8.8-3.067,16.04-8.535,22.976-14.523a26.262,26.262,0,0,1,19.148-6.766,18.049,18.049,0,0,0,15.519-6.629,23.162,23.162,0,0,1,12.036-7.283c1.87-.493,3.8-1.057,4.96-2.639,2.711-3.712,3.5-.876,4.33,1.235a8.536,8.536,0,0,1,.467,3.62c-.587,7.957-4.152,14.857-7.879,21.685-.68,1.246-1.91,1.858-3.1,1.138-5.851-3.544-9.455.239-13,3.934-2.587,2.7-5.3,5.186-9,6.092-4.556,1.116-6.365,4.23-6.853,8.538-.882,7.78-1.375,8.326-8.972,10.167-1.851.448-3.749.728-5.567,1.28-2.924.885-4.882,2.7-6.848,5.264-4.582,5.98-9.318,12.206-17.366,14.019a8.034,8.034,0,0,0-6.089,5.424,20.739,20.739,0,0,1-8.127,9.953,111.355,111.355,0,0,0-17.734,15.653c-3.31,3.475-7.016,6.366-11.85,7.634-9.036,2.37-10.662.844-8.328-8.167,1.979-7.636,5.956-14.312,10.327-20.728,6.317-9.275,12.385-18.6,13.644-30.151a11.126,11.126,0,0,1,1.211-3.444c1.024-2.129,2.974-4.037,5.1-3.269,4.405,1.587,6.5-1.444,9.254-3.493.917-.684,1.459-2.386,2.883-1.841,1.8.688.124,2.44.85,3.891m74.711,7.4c4.074-2.7,8.228-5.284,12.206-8.118,9.181-6.542,16.214-14.54,17.131-26.459a2.32,2.32,0,0,1,1.635-2.445c4.064-1.434,5.643-4.914,6.542-8.731.623-2.64.908-5.358,1.382-8.034.211-1.193.328-2.126,2.153-2.258,4.387-.317,8.672-.33,12.806,1.339a27.063,27.063,0,0,0,19.9.563,11.527,11.527,0,0,1,2.361-.621c3.774-.494,5.758,1.367,5.375,5.16a17.3,17.3,0,0,1-3.7,8.511,76.182,76.182,0,0,1-27.778,23.507c-15.9,7.865-33.3,11.6-50.019,17.588M315.933,233.058c1.473-14.353,7.086-28.121,14.726-41.12,4.933-8.394,11.091-15.795,19.256-21.34,1.92-1.3,3.212-1.587,3.219,1.388.013,5.421.547,10.926-2.578,15.831-.362.568-.892,1.047-.347,1.782,3.782,5.107,1.668,10.4.48,15.662-1.164,5.155-3.076,10.219-2.374,15.627.471,3.626-1.133,5.851-4.409,6.75-4.585,1.259-7.212,4.425-9.482,8.321-2.528,4.338-5.087,8.736-8.932,12.1-3.243,2.838-5.43,2.349-7.394-1.459-2.062-4-2.395-8.3-2.165-13.543M387,86.137c3.2-2.549,6.1-5,9.165-7.256,1.794-1.321,4.291-2.479,6.042-.89,2.56,2.325,5.378,2.206,8.34,2.335,2.077.089,3.8.787,3.945,3.238.129,2.189.464,4.5-2.826,4.792a2.142,2.142,0,0,0-2.153,2.486c.531,3.809-2.13,5.327-4.788,6.759-2.991,1.61-6.087,3.027-9.142,4.52-3.226,1.576-5.565,3.869-6.2,7.568-.54,3.139-2.46,5.435-4.76,7.413a56.894,56.894,0,0,1-26.854,13.005,28.28,28.28,0,0,1-11.361.026c-2.7-.582-5.06-1.6-5.348-4.732-.276-2.984,1.793-4.277,4.236-5.228,3.672-1.431,7.382-2.8,10.94-4.48,2.593-1.229,4.158-3,1.825-6.08-1.356-1.789-2.1-4.072.717-5.474,10.406-5.178,19.249-13.293,30.921-16-.359-1.688-1.707-1.1-2.7-2M218.832,151.032c-8.014-.618-14.867-3.218-21.7-5.9-11.757-4.618-23.269-9.919-35.735-12.534-7.448-1.563-14.8-3.837-22.319-4.733-8.076-.963-11.875-9.523-19.89-10.156a2.764,2.764,0,0,1-1.785-1.528c-2.181-5.023-6.305-7.566-11.193-9.406a4.4,4.4,0,0,1-3.134-5.081c13.152,11.011,28.306,15.422,44.853,15.04,6.044-.14,10.51.542,12.716,7.133,1.3,3.89,4.047,3.987,7.257.965,1.328-1.251,2.671-2.46,4.637-1.963,5,1.267,9.982,2.625,14.971,3.951,1.976.525,3.1,1.724,2.733,3.854-.685,3.968,1.7,6.007,4.685,7.718,3.339,1.916,7.04,2.863,10.689,3.91a25.2,25.2,0,0,1,13.214,8.734m64.895,56.351a17.943,17.943,0,0,1-9.252-7.99c-6.62-10.773-15.2-19.784-24.477-28.258-5.924-5.411-11.528-11.191-15.7-18.147-1.971-3.288-4.02-6.582-4.548-11.148,5.831,2.695,11.548,3.854,17.211,5.131,10.405,2.347,17.285,8.576,21.335,18.3,1.833,4.4,3.273,8.913,4.659,13.457,2.97,9.723,5.127,19.761,10.767,28.653m27.4.676c-.288-.246-.413-.3-.447-.389-8.017-21.23,2.676-57.7,20.768-71.035,1.825-1.344,2.436-.3,2.837,1.161.455,1.657-.464,2.968-1.659,3.91-4.743,3.74-4.732,8.368-2.979,13.577,1.052,3.129,2.016,6.429-.014,9.773-1.983-1.851-.4-4.354-1.794-6.8-.6,9.2-2.194,17.65-5.919,25.592-3.741,7.977-7.906,15.759-10.791,24.209M233.3,75.126c1.561.155,2.9.241,4.232.426,14.373,2,21.267,12.219,17.578,26.149a10.307,10.307,0,0,0,1.442,8.9c1.057,1.563,2.309,3.061,2.5,5.057.088.947.217,2.04-.71,2.6a2.8,2.8,0,0,1-3.064-.342c-1.489-.968-2.012-2.553-2.464-4.1-.719-2.471-1.282-4.99-1.888-7.495-.426-1.761-1.148-2.508-3.116-1.588-4.093,1.913-7.7.582-10.856-2.227a17.739,17.739,0,0,1-4.213-20.48c.3-.665,1.307-1.338.459-2.09-.386-.342-1.259-.216-1.9-.166-.808.063-1.6.293-2.407.4-1.429.193-2.37-.307-2.585-1.858-.2-1.466.193-2.342,1.874-2.368.749-.012,1.688.066,2.145-1.2l-5.664-.679c1.726-3.236,4.365-4.119,7.242-4.211,1.731-.056,3.88.336,4.379,2.279.44,1.713-1.833,1.87-2.979,2.995m63.863,134.508c-13.508-15.639-15.749-36.505-26.593-54.271,5.463,1.855,9.7,3.85,14.158,4.679,6.984,1.3,10.017,5.474,11.276,12.038,2.384,12.421.772,24.944,1.159,37.554m62.491-49.869c.094-4.235-1.27-7.485-1.828-10.919-.622-3.836.132-6.841,3.576-9.14,3.945-2.634,7.591-5.714,11.515-8.382a37.193,37.193,0,0,1,11.625-5.72c2.5-.636,4.754-.528,5.765,2.189.622,1.672,1.609,1.519,2.842,1.25,1.478-.322,2.951-.673,5.222-1.193-8.852,16.331-25.365,21.58-38.716,31.914M126.016,97.376c3.194-5.216,9.84-3.606,12.672-.63,2.259,2.371,1.8,5.4-.811,6.872-1.307.737-4.483-.219-3.663,2.289.726,2.222,2.841-.483,4.424-.268,1.44.194,3.416-1.357,4.11,1.1a3.768,3.768,0,0,1-2.273,4.7,15.578,15.578,0,0,1-7.965,1.219c-12.128-1.011-21.951-5.659-27.737-17.068-1-1.973-1.163-3.557.087-5.245a2.954,2.954,0,0,1,3.266-1.152c2.464.652.214,2.98,1.761,4.486,1.645-2.115,3.931-1.607,6.187-1.159,1.338.266,2.737.781,3.989.092,2.649-1.458,3.833-.208,4.635,2.165a22.6,22.6,0,0,0,1.319,2.593m365.869,36.767a24.82,24.82,0,0,1-10.457,12.844c-8.392,5.53-18.086,7.983-27.4,11.329-.954.342-1.646.459-2.1-.921a12.439,12.439,0,0,1,5.6-14.71c4.649-2.532,9.353-4.967,14-7.5a11.548,11.548,0,0,1,8.6-1.335c3.671.874,7.416,1.861,11.747.292m-277.977-6.352c-4.173-2.736-8.625-3.662-13.106-4.576-1.823-.372-4.467-.383-5.126-2.046-1.415-3.567-4.211-3.319-7-3.531-3.526-.267-7.059-.435-10.581-.737-5.871-.5-9.313-2.915-10.583-7.9-1.056-4.145-2.247-7.922-7.273-8.371.727-2.709,6.376.509,4.463-4.468.254-.011.508-.016.762-.033,3.389-.215,7.223-1.571,8.178,3.762.244,1.358,1.718,1.921,3.053,2.436,2.4.928,4.752,2,7.053,3.153,7.233,3.628,13.814,8.771,22.353,9.336,1.376.09,2.953,1.024,2.125,2.708-1.613,3.28.65,4.629,2.579,6.332,1.141,1.008,2.815,1.628,3.1,3.932m-39.714-37.57a1.672,1.672,0,0,1,2.258.871c1.775,3,4.253,3.263,7.339,2.307a42.539,42.539,0,0,1,6.406-1.161c8.282-1.22,15.578,1.353,22.155,6.135,3.53,2.567,3.555,4.254.3,7.111-2.356,2.068-4.089,4.3-3.871,7.885-1.6-.456-2.9-.8-4.179-1.195-9.782-3.049-18.261-8.984-27.8-12.567-.649-.243-1.6-.706-1.382-1.277,1.116-2.943-.783-5.464-1.223-8.11m73.887,51.213c-3.968-.859-7.9-1.931-11.911-2.539-11.63-1.768-19.52-8.075-24.042-18.9-1.658-3.97.476-11.909,4.192-13.826,1.658-.856,3.778-1.625,3.343,1.593-.573,4.242,1.078,7.366,4.033,10.132a8.347,8.347,0,0,1,2.8,4.418c.342,1.811,1.318,2.348,3.115,2.375,5.061.077,9.412,2.435,13.772,4.673.935.481,2.35.976,1.71,2.32-2.028,4.265.113,6.952,2.983,9.752M478.444,94.122c-.588,2.636-3.807,1.475-3.988,4.131-.143,2.1-1.793,3.6-3.313,4.992a43.618,43.618,0,0,1-20.821,10.546,17.243,17.243,0,0,1-6.471.407c-.873-.146-2.1-.005-2.3-1.188-.183-1.042.748-1.7,1.48-2.274a8.593,8.593,0,0,1,2.121-1.2c2.051-.809,2.845-1.852,2.012-4.28-1.057-3.079.513-5.621,3.028-7.379,3.116-2.177,6.377-4.147,9.591-6.181.445-.28,1.148-.729,1.451-.569,5.374,2.829,11.418,2.033,17.211,3m-83.422,44.986c3.3-5.853,8-8.821,12.827-11.586,6.37-3.65,12.089-7.8,14.816-15.092,1.293-3.456,4.447-5.032,7.837-5.976,3.786-1.053,7.545-2.13,10.557-4.946,1.988,5.289.658,8.7-5.435,13.114-8.491,6.145-17.044,12.208-25.708,18.107-4.229,2.879-8.637,5.6-14.893,6.378m-33.141-48.92c-2.259,4.125-5.341,5.418-8.883,4.632-2.284-.507-2.709.553-3.588,2.009-2.1,3.472-.953,6.611.946,9.521,2.079,3.186,1.117,5.238-1.818,7.012-1.97,1.19-3.843,2.54-5.774,3.795-3.231,2.1-4.273,1.682-5.278-2.186a26.967,26.967,0,0,1,.3-14.07c.928-3.415,2.761-5.716,6.625-6.148,2.9-.324,5.423-1.39,6.249-4.825.528-2.2,2.365-1.787,3.991-1.137,2.108.843,4.129,2.019,7.23,1.4m54.639-7.841c.125-1.338.093-2.75,1.63-3.045,1.894-.363,3.578.186,4.387,2.11.783,1.863.966,5.079,2.154,5.475,4.294,1.43,2.008,3.815,1.06,5.512A28.235,28.235,0,0,1,406.5,106.852c-1,.221-2.255-.355-2.954.873-1.907,3.349-5.585,3.609-8.658,4.867-.849.348-2.25,1.279-2.893-.025-.577-1.171.246-2.373,1.343-3.092a7.634,7.634,0,0,1,2.537-1.255c3.8-.752,6.576-2.934,9.112-5.733a36.259,36.259,0,0,1,7.149-6.651c.929-.589,1.456-1.374,1.045-2.372-.838-2.042.392-2.548,1.933-3.109,2.947-1.075,5.1-2.482,2-5.779-.484-.515-.425-1.543-.592-2.23m85.306,18.295c5.507.05,5.875.622,4.046,5.458-.048.126-.092.255-.142.382-2.973,7.492-9.919,11.365-15.267,16.685-1.17,1.164-1.555-.144-1.874-1.024-1.062-2.924-.693-5.894-.221-8.856.618-3.88,2.053-7.8.967-11.681-.869-3.108.737-2.787,2.591-2.595,3.508.367,6.859,1.752,9.9,1.631m-241.84,30.3a91.522,91.522,0,0,1,17.315,9.523,36.042,36.042,0,0,1,11.459,13.06c.443.874,1.575,1.827.539,2.894s-2.058.008-2.923-.468A173.631,173.631,0,0,0,268.3,147.47a4.814,4.814,0,0,1-2.929-2.567,90.429,90.429,0,0,1-5.38-13.965m-50.063,10.65c-6.937-.457-12.41-3.939-16.429-9.909-.437-.648-.993-1.522-.33-2.19a2.332,2.332,0,0,1,1.886-.17c9.033,2.491,18.074,5.009,25.656,10.886A27.518,27.518,0,0,1,229.9,152.4c.285.76.869,1.6.341,2.291-.7.926-1.723.353-2.625.116a6.416,6.416,0,0,1-3.474-2.011c-1.954-2.423-3.848-4.9-5.64-7.445-2.023-2.871-4.4-4.818-8.577-3.76m-7.072-51.393c-4.461,0-8.122.052-11.779-.029-1.17-.026-2.52.07-3.241-1.261a19.317,19.317,0,0,1-2.238-12.625c.633-3.651,4.709-2.412,7.025-3.786a1.228,1.228,0,0,1,.366-.174c3.031-.636,4.015,3.83,7.238,2.911.419-.119,1.535.6,1.556.979a20.337,20.337,0,0,1-.245,4.864,12.464,12.464,0,0,0,1.318,9.122m171.77,66.428a25.985,25.985,0,0,1-3.946,13.115c-2.189,3.535-4.595,3.628-7.631.743-.724-.688-.923-2.7-2.642-1.544a2.288,2.288,0,0,0-.855,2.554c.354,1.4,1.335,1.42,2.535,1.329,3.352-.254,4.172,1.61,3.073,4.341-1.993,4.954-4.925,9.4-8,14.559a34.37,34.37,0,0,1-.837-16.808c1.339-6.765,3.631-8.57,10.488-8.227.128.005.275-.389.412-.594-1.512-1.442-6.8-3.022.165-4.157.415-.068.631-1.135,1.011-1.688a7.54,7.54,0,0,1,6.232-3.625m-20.444-10.012c2.773,5.663,2.487,10.587-1.114,15.22-4.6,5.916-11.4,8.792-18.1,13.538,4.171-11.844,11.131-20.453,19.212-28.759M358.9,85.445c4.864-6.449,10.888-9.122,17.46-10.67,2.059-.484,4.9-2.591,6.308-.35,1.589,2.525.692,5.857-.836,8.548-1.366,2.407-3.832,2.822-6.366,2.846-5.271.049-10.47-1.444-16.565-.374m3.361,47.793c-7.264,4.928-13.694,9.739-18.559,16.5-1.7-2.652-1.27-5.02-1.265-7.29.007-2.972-.786-6.684.676-8.673,1.108-1.508,5.2-.906,7.972-1.086,3.421-.222,6.894-1.062,11.176.544M419.2,109.947c5.076-7.652,12.008-13.425,19.2-18.969,2.7-2.081,3.33-.8,3.693,1.7.615,4.218-.937,7.114-5.316,9.556-5.568,3.1-11.927,4.472-17.577,7.716m-213.4-25.72a10.207,10.207,0,0,1,.673-3.97c.485-1.328,1.032-1.859,2.271-.806,5.174,4.4,10.186,8.95,13.71,14.864.5.835,1.549,1.843-.367,2.4-6.348,1.853-16.236-5.718-16.286-12.491m96.284-5.445c-.1-2.065-.3-3.94-.254-5.808a2.578,2.578,0,0,1,2.241-2.535c.654-.138,1.892-.1,1.763.368-.9,3.266,2,7.156-.8,9.729-1.919,1.764-2.061,2.879-1.318,5.042.506,1.467.267,3.21.257,4.829-.005,1.063,0,2.333-1.366,2.6-1.1.213-1.684-.789-2.174-1.559-3.233-5.07-4.333-10.735-4.454-16.642-.016-.777-.06-1.787.916-2.034.9-.228,1.44.584,1.98,1.186,1.249,1.4,1.4,3.523,3.207,4.825m94.293,46.061c-1.659-.181-3.942-.2-4.591-1.821-.743-1.858,1.746-2.3,2.857-3.289a22.765,22.765,0,0,1,3.411-2.173,31.637,31.637,0,0,1,10.805-4.436,2.71,2.71,0,0,1,3.342,1.6c.672,1.64-.593,2.087-1.587,2.768-1.448.992-2.877,2.016-4.265,3.089-2.93,2.266-6.031,4.105-9.974,4.259M281.726,74.965c-.443.824,1.3,2.743-.851,3.432-2.989.959-6.381,1.837-8.718-.9s-.795-5.649,1.2-8.033a8.231,8.231,0,0,1,7.494-3.2c2.082.227,3.484.765,1.747,3.169-1.094,1.515-.891,3.339-.869,5.54M255.237,69.35a15.637,15.637,0,0,1,6.756.23c1.582.42,2.905,1.5,2.53,3.169-.745,3.3-4.077,4.026-6.446,5.649-1.784,1.222-2.657-.426-3.529-1.6a7.922,7.922,0,0,0-4.724-2.908c-1.047-.263-3.145.874-2.841-1.621.254-2.1,1.262-3.579,3.722-3.34,1.876.183,3.754.347,4.532.419M224.2,112.262c7.434,4.361,17.4,4.931,21.472,14.158-8.413-2.856-17.63-4.483-21.472-14.158M376.545,88.936a25.163,25.163,0,0,1-7.465,5.034c-4.683,2.428-9.627,4.351-14,7.393-.953.663-1.872,2.852-3.2,1.341-1.349-1.537.181-3.079,1.485-4.033,1.961-1.436,4.112-2.609,6.15-3.944,1.354-.887,3.1-1.582,3.892-2.85,3.222-5.152,7.689-3.785,13.136-2.941M310.089,154.65a23.992,23.992,0,0,1,1.524-9.61c1.482-4.3,1.956-9.652,8.418-9.9.566-.021,1.085-1.273,1.883-2.277.271,9.845-7.219,15-11.825,21.784m260.1-69.139c3.364,6.941.035,15.222-6.334,17.006-2.668.748-3.714.017-2.82-2.711,1.8-5.5,5.552-9.687,9.154-14.295m-327.81,29.222c-2.919-1.047-4.794-1.7-6.66-2.39-2.917-1.071-5.946-1.9-8.513-3.751-3.143-2.264-1.8-4.666-.1-6.984,2.092-2.847,3.8-.946,5.192.693,3.214,3.776,6.26,7.7,10.079,12.432M556.824,97.292c.884-4.828,1.65-9.346,2.564-13.833.317-1.557,6.756-2.783,7.885-1.656.92.918.463,1.643-.06,2.49-1.211,1.96-2.274,4.016-3.57,5.915-1.794,2.627-3.27,5.612-6.819,7.084M325.2,101.023c5.462,2.839,6.613,7.34,7.159,12.089.2,1.716.122,3.932-2,4.343-2.253.437-3.406-1.428-3.8-3.387a63.255,63.255,0,0,1-1.357-13.045M291.617,75.37c-.089,3.6-2.462,6.83-4.724,6.432-3.127-.551-4.087-3.053-4.028-5.767.06-2.811,1.489-5.26,4.528-5.357,2.995-.095,4.03,2.29,4.223,4.692m153.5,79.887c-.818,6.588-6.264,9.9-16.6,11.042,2.618-8.079,11.142-6.31,16.6-11.042M547.491,83.418c3.033.409,5,2.283,6.207,5.107.435,1.017.952,2.155.218,3.092-.779,1-1.99.559-3.038.259a21.693,21.693,0,0,1-5.43-2.775c-1.2-.751-2.392-1.372-1.813-3.131.6-1.822,1.907-2.539,3.856-2.552m-333.7-13.852c1.193,6.064,4.969,9.278,8.854,12.435a11.048,11.048,0,0,1,3.735,4.717c.448,1.247,1.42,2.955.154,3.726-1.54.936-2.944-.581-3.459-1.94-1.689-4.464-4.99-7.661-8.127-11.009-1.919-2.047-2.367-4.363-1.157-7.929M319.333,71c2.854.047,5.58.473,5.761,3.815a4.458,4.458,0,0,1-3.944,4.888c-2.311.354-5-3.678-4.936-6.916.05-2.652,2.109-1.3,3.119-1.788m-9.9,4.258c3.23,2,2.92,5.57,4.934,7.715.551.585,2.266.229,1.63,1.72-.4.932-1.443,1.1-2.444,1.108a9.839,9.839,0,0,0-3.217.207c-3.875,1.443-3.467-1.193-3-3.291.516-2.339,1.813-4.482,2.1-7.459m-143,37.853c-5.571.328-8.985-1.674-9.571-5.782-.222-1.558-.517-3.225.415-4.7.087-.137.813-.068,1.067.131,1.659,1.3,1.543,2.991.98,4.781-.061.191.174.475.281.713,4.12-2.491,4.987-1.874,6.828,4.854m165.44-34.467c1.02-2.066,1.168-5.071,3.377-6.5,1.414-.911,5.131,2.706,5.174,4.713.128,5.9-5.347,1.226-7.229,3.726-.463.616-1.186-.779-1.322-1.942m11.88,7c1.486-4.612,4.62-6.2,8.715-6.33,1.219-.038,3.093-.914,3.536.705.452,1.647-.833,3.118-2.433,3.79-3,1.259-6.216,1.426-9.818,1.835m-160.82-7.756c0,2.041.015,3.79-.009,5.541-.009.639.124,1.371-.6,1.767-1.367.743-6.877-1.631-7.282-3.289-.46-1.88-.958-4.122,2.435-3.011,1.858.608,3.345-.751,5.458-1.008M310.907,96.136c-1.769-4.319-.176-6.989,4.83-7.724,1.7-.25,4.4-1.5,5.029.506.593,1.882-2.063,2.755-3.807,3.349a13.782,13.782,0,0,0-6.052,3.869m26.861,46.609c.5,5.016,1.8,10.2-2.986,14.387-2.218-5.79.226-10.14,2.986-14.387M384.035,77.7c.463-1.422-.882-3.484,1.5-4.055,1.807-.434,5.159,2.87,5.085,4.932-.089,2.5-2.047,2.91-3.934,3.18-3.832.547-1.671-2.735-2.647-4.056M181.594,69.611c-1.272,1.9-2.264,3.523-.6,5.5.789.94-.068,1.9-1.263,1.646-2.771-.578-5.648-2.142-6.034-4.7-.343-2.286,3.045-1.677,4.745-2.386.779-.325,1.805-.056,3.156-.056M443.075,95.5a4.307,4.307,0,0,1,4.2-4.112c1.353-.005,2.8.095,3.1,1.865.136.808-4.61,5.329-5.41,5.077a2.8,2.8,0,0,1-1.883-2.83m-114,36.208c.52-2.232.691-4.8,3.682-5.155a2.453,2.453,0,0,1,2.914,2.65c-.168,2.937-2.718,3.4-4.964,3.932-1.023.244-1.979.072-1.632-1.427M155.013,109.022c-2.543-2.318-6.284-2.447-6.337-6.035-.024-1.649,1.962-1.827,3.426-2.051.795,1.215-.779,2.428.167,3.495,1.523-.012.458-2.408,2.385-2.346.775,2.016.677,4.107.359,6.937M85.056,98.311c2.475.525,4.818-.135,7.182-.194,1.168-.028,2.233-.034,1.679,1.664-.327,1,.293,2.861-1.7,2.431-2.635-.567-5.567-.718-7.161-3.9M293.848,78.516c1.2,4.125-.179,7.634.684,11.141-4.566-1.5-4.854-5.052-.684-11.141m51.965-2.529c.806-1.91,2.105-3.907,4.962-4.089.819-.052,2.374-.363,2.075,1.065-.6,2.869-2.987,4.018-5.593,4.681-.882.223-1.676.1-1.443-1.657M161.184,120.361c-.118-1,.355-1.446,1.163-1.188,2.309.735,4.878,1.442,5.724,3.939.347,1.024-1.388,1.477-2.489,1.364-2.513-.257-3.721-1.991-4.4-4.114m91.229,5.577c2.149.487,2.648,2.08,2.47,3.941-.1,1.053.649,3.06-.922,2.936-1.955-.155-3.022-2.033-3.115-4.1-.053-1.18-.083-2.469,1.566-2.78m243.828,3.111c-.85-2.619-2.286-5.123.539-7.354.806-.638,2.325-1.357,2.2.528-.155,2.368.5,5.286-2.741,6.826M322.335,93.905a6.641,6.641,0,0,1-.305,1.382c-1.14,2.584-3.539,3.037-5.951,3.343-.6.076-.887-.566-.736-1.145.612-2.335,2.71-2.774,4.581-3.4.681-.228,1.406-.9,2.411-.181M341.5,83.388c.513,4.718-1.273,6.754-5.486,6.778.978-2.779,2.994-4.682,5.486-6.778M483.519,126.07c-.852.215-1.444-.14-1.248-.964.46-1.925.727-4.1,2.956-4.9,1.231-.44,1.726.559,1.723,1.563a4.116,4.116,0,0,1-3.432,4.3m-11.194,4.679c-2.276,3.258-4.451,5.1-8.157,5.1,1.376-3.756,4.271-4.407,8.157-5.1M209.86,77.809c-2.777-1.8-2.19-4.28-2.886-6.24-.239-.673-.63-1.681.549-1.976a1.733,1.733,0,0,1,1.972,1.121c.991,2.158.722,4.4.364,7.1m36.84-9.084c-1.68,2.905-3.5,3.692-6.021,2.668a1.94,1.94,0,0,1-1.378-1.84c.077-1.242,1.126-.813,1.859-.822,1.611-.019,3.221-.005,5.54-.005m309.731,14.7c-.276.7.735,2.369-1.086,2.252-1.581-.1-2.585-1.707-3.1-2.864-.552-1.225,1.127-1.483,2.138-1.653,1.618-.27,2.188.617,2.053,2.264M269.117,66.137c.69,3.378.145,5.173-2.232,5.71-1.75.4-1.928-1.57-1.928-2.4,0-3.153,3.433-.162,4.16-3.309m22.467,44.818c-.821-1.242-1.233-1.754-1.526-2.327-.681-1.332-1.248-2.7-.246-4.137a.994.994,0,0,1,1.39-.375c1.491,1.045,1.086,2.571.87,4.022-.1.648-.222,1.291-.487,2.818M219.2,67.629c1.913,1.439,1.653,3.038,1.806,4.449.123,1.125-.092,2.332-1.679,2.059-1.519-.261-.976-1.379-.606-2.2a9.649,9.649,0,0,0,.479-4.311m123.542,7.442c-1.875-1.961-3.847-2.625-2.906-5.032.242-.619.908-1.464,1.406-1.148,2.028,1.29,1.1,3.362,1.5,6.18m-4.92,18.563a3.961,3.961,0,0,1,4-3.124c.812-.04.7,1.068.476,1.58-.839,1.949-2.4,2.206-4.473,1.545" transform="translate(0)" fill="#212121"/>
      </g>
    </g>
    <g id="tree-2" data-name="tree" transform="translate(21.033 617.25)">
      <g id="Gruppe_5-2" data-name="Gruppe 5" clip-path="url(#clip-path-2)">
        <path id="Pfad_30-2" data-name="Pfad 30" d="M244.612,320.5c1.287-1.815,2.508-3.853.656-6.108-6.526-7.947-7.276-19.339-9.317-30.034-2.79-14.612.81-27.051,6.388-38.791,3-6.322,7.64-10.07,12.4-13.037,13.136-8.19,23.595-21.472,34.252-34.5,2.023-2.472,1.981-6.208,3.925-8.63a50.933,50.933,0,0,1,15.325-12.89c11.773-6.516,24.059-10.853,35.932-16.937,6.34-3.249,12.693-6.478,19.128-9.324,11.218-4.963,20.037-14.343,26.736-27.847,1.217-2.454,2.517-4.837,3.61-7.4a27.5,27.5,0,0,1,8.183-11.21c4.792-3.777,7.975-9.055,6.63-17.618-.474-3.015,1.188-1.73,1.982-1.624,5.674.753,11.364,1.811,17.04.569,7.827-1.714,15.538,1.432,23.331.734,2.377-.214,4.841.515,6.046-3.749.588-2.084,1.588-.129,2.38.237s1.781,1.249,2.248-.313c.356-1.194-.641-1.865-1.241-2.421-1.649-1.528-3.3-.985-5.086.681-.077-3.543,1.477-4.835,3.141-5.886,2.5-1.58,5.238-1.743,7.9-2.384,1.426-.344,3.168.347,4.006-2.178.127-.383.3-.7.5-.164,1.484,4.163,2.785,1.165,4.13-.187v-3.27c-1.159-1.49-2.532-1.073-3.86-.788a17.45,17.45,0,0,1-5.734.387c-6.743-.772-13.211-4.063-20.015-4.147a2.926,2.926,0,0,1-3.053-2.41c-.824-2.565-2.037-2.841-3.956-1.655-1.519.939-3.724,2.834-4.806-1.353-.244-.942-1-.936-1.487-.409-1.566,1.684-2.654,1.458-3.581-1.152-.352-.987-1.394-.767-2.155-.783-2.028-.04-4.057-.022-6.085,0-2.821.031-5.63.166-7.619-3.532a2.7,2.7,0,0,0-2.666-1.249c-7.854-.247-15.776,1.4-23.534-1.648a1.338,1.338,0,0,0-1.144.083c-2.481,1.546-4.76.446-6.936-1.137-6.272-4.564-12.8-6.756-19.873-4.888-.988.261-2.424.8-2.988-.625-1.4-3.542-3.371-2.252-5.306-1.728-1.516.411-3.016.97-4.543,1.243-.823.147-2.272.007-2.222-1.126.217-4.981-2.154-2.74-3.619-2.766-2.653-.046-5.711,1.907-7.152-3.365-.184-.673-.867-.323-1.326-.145-.558.216-1.3.641-1.553-.276-.946-3.48-3.164-3.107-5.087-3.447a71.054,71.054,0,0,1-15.862-4.488,14.15,14.15,0,0,0-8.308-.664c-7.123,1.272-14.244,4.318-21.459.666a1.558,1.558,0,0,0-1.422,0c-3.09,1.837-6.124,4.331-9.472.943a.22.22,0,0,0-.279,0c-2.241,3.372-3.859.19-5.664-1.055-1.246-.859-2.809-.676-3.827-2.3-1.838,2.431-3.7.625-4.982-.73-1.382-1.467-.411-4.115.17-6.037.926-3.06.554-4.511-1.972-4.676-2.269-.148-4.73.045-5.745-4.039-.348-1.4-1.4-.443-2.064-.3a23.422,23.422,0,0,1-9.816-.128c-.953-.2-2.223-.148-2.623-1.353-1.14-3.436-3.336-3.216-5.391-3.616-5.692-1.106-11.385-.043-17.078.008-2.968.026-5.972.344-8.774-1.548h-.58c-1.011.979-.1,2.528-.581,4.015-2.545-3.183-3.3,1.817-5.226,2.141-1.539.258-2.607,4.571-4.815.855-.222-.373-3.368,2.012-4.512,4.417.6.969.983.192,1.392.074.477-.138,1-.4,1,.707,0,.667-.373.947-.772.961-1.154.043-2.31.015-3.481.015-.342,1.188.386,1.258.847,1.6a1.529,1.529,0,0,1,.6,2.194c-.369.8-.6,1.785-1.512,1.323-1.579-.8-2.192-.023-1.59,2.483-1.854-.842-2.969-3.988-5.347-1.838,1.329,1.948,3.71,2.244,4.07,5.62-5.733.807-11.4.577-16.866-2.042-2.724-1.306-5.983-1.053-7.968-4.986-.527-1.044-1.413.24-2.119.474-3.008,1-5.971,3.643-9.059.209-.234-.259-.888.192-1.338.364-3.908,1.49-7.766,3.409-11.74,4.338-2.425.566-3.144,3.9-5.232,4.715-1.944.757-4.207,1.247-5.676,2.7-1.531,1.519-3.847,1.387-4.708,4.139-.392,1.254-1.01.973-1.663.944-2.606-.117-5.216-.356-7.82-.278-1.238.037-3.151-1.961-3.572,1.759a3.011,3.011,0,0,1-1.342.009c-5.308-.934-10.611-.249-15.917.039-2.319.125-4.641,1.473-6.916-.938-.861-.91-2.23.376-3.244,1.135-2.473,1.851-4.907,3.585-7.8,4.043-3.124.493-1.854,3.366-1.082,5.754-1.323,1.195-2.531-1.438-3.827-.049a5.39,5.39,0,0,0,3.393,3.39,1.828,1.828,0,0,1,1.18,1.993,1.654,1.654,0,0,1-1.384,1.75c-2.582.484-5.124,1.032-7.123,3.775-.259.356-1.157.451-1.336.157-1.935-3.184-4.095-1.26-6.084-.473C46.4,59,42.538,58.437,38.69,58.573c-2.129.076-4.289-.078-5.781,2.723-.517.97-1.312.965-2.108.988a8.277,8.277,0,0,0-6.489,3.29c-2.424,2.924-5.763,2.891-8.627,4.437-1.2.644-3.52-.1-2.639,3.644.035.148-.173.6-.25.586-3.564-.4-4.851,6.735-8.861,5.274,1.845,2.376,4.16-.748,6.259,1.6-2.3.778-3.049,6.94-6.236,2.145-.89,2.507,1.117,2.25,1.339,3.56-.827,1.384-1.884,1.188-2.944,1.214C1.5,88.059.048,87.132,0,89.029c-.041,1.646,1.51,1.345,2.37,1.462,3.555.481,7.12.9,10.687,1.094,7.43.4,14.872.48,22.291,1.1,1.325.111,3.818-1.763,4.176,2.671.094,1.172,3.067.1,3.278-1.439.128-.934.27-1.388,1.018-1.48,2.013-.251,4.014-.688,6.026-.977,2.473-.356,4.484,1.052,5.542,4.1,2.038,5.856,5.564,8.64,9.8,9.679,6.585,1.617,11.9,5.444,15.659,13.722,2.225,4.9,6.3,7.051,10,9.394a71.983,71.983,0,0,0,19.931,8.316c10.765,2.947,20.742,9.318,31.064,14.189a213.737,213.737,0,0,1,18.982,9.9,33.556,33.556,0,0,1,12.958,14.514c7.989,16.221,17.911,29.971,28.284,43.041,5.633,7.1,9.2,15.65,11.19,25.673,2.227,11.235,5.252,22.257,5.314,34.147.073,13.785-3.136,25.6-10.831,34.588a7.4,7.4,0,0,0-.643.823c-.748,1.173-2.1,2.213-1.493,4.008.564,1.654,2.035,1.539,3.148,1.237,3.786-1.031,7.444-.945,10.921,1.715h4.059c5.219-4.4,10.438-1.1,15.657,0ZM62.771,91.882c2.019-1.407,3.939-.241,6.281.122-2.507,3.742-4.4,1.871-6.281-.142.37,1.087.735,2.176,1.111,3.258.425,1.223.06,1.691-.8,1.864-3.839.767-6.223-3.322-4.817-8.457q2.263,1.681,4.509,3.354M216.8,104.673c.94-.65,1.865-1.35,2.824-1.942,6.363-3.923,7.077-3.413,8.654,6.095,2.463,14.853,1.958,16.782-6.9,24.06-2.565,2.108-3.974,4.865-4.178,9.094-.131,2.716-.227,5.634-2.09,8.063a71.42,71.42,0,0,1,.206-11.742c.438-6.956.9-13.9-3.2-19.441-1.017-1.375-1.071-3.385-.721-5.382.442-2.536,1.762-.662,2.62-1.114a4.076,4.076,0,0,0,2.117-3.072c.306-1.567.513-3.171.76-4.757-1.443.713-1.887,2.962-3.11,4.015-.949.818-2.119,2.662-2.988,1.317a6.29,6.29,0,0,1,.043-6.019,2.69,2.69,0,0,1,1.131-1.2c1.993-.851,3.951-1.984,6.1-1.994,0,1.723-1.48,2.321-1.275,4.023M191.93,91.42a11.711,11.711,0,0,1,1.045,1.405c1.437,2.626,5.292,3.952,2.44,8.995-.179.317.522,1.631.819,2.477,1.6,4.547,4.613,6.851,7.5,9.293,3.945,3.331,5.882,8.043,5.463,14.595-.378,5.929-.7,11.865-1.072,18.162-.822-1-1.543-1.847-2.236-2.734-5.523-7.082-11.432-13.454-18.077-18.273-2.581-1.872-2.79-3.461-.866-6.29,1.566-2.3,2.315-5.14.088-7.356-3.089-3.074-3.127-6.971-2.4-11.554.748-4.71.43-9.232-2.235-12.871a3.908,3.908,0,0,1-.977-2.838,8.787,8.787,0,0,1,4.214-6.745c1.9-1.258,3.863-1.964,5.9.413-4.4,1.6-5.136,5.091-2.252,9.835a41.713,41.713,0,0,0,2.735,3.62c-.112-2.9-2.17-4.865-1.913-7.929.093-1.1-.2-3.039,1.119-2.562,4.566,1.644,10.051.424,12.767,8.148.6,1.706,1.977,2.914,3.075,4.22,2.7,3.216,2.721,4.426-.591,5.664-2.984,1.117-4.124,3.192-3.6,7.349a7.321,7.321,0,0,1-.142,1.555c-3.865-1.5-4.474-2.738-4.27-8.388a2.614,2.614,0,0,0-.254-1.45c-2.1-2.251-3.48-5.833-6.294-6.741m91.249,57.419c1.481-.7,1.753-2.452,1.889-3.986.3-3.4,1.638-5.556,3.781-6.608,6.243-3.067,11.377-8.535,16.3-14.523,3.9-4.744,8.422-7.17,13.581-6.766,4.49.351,8.1-1.864,11.007-6.629a16.625,16.625,0,0,1,8.537-7.283,5.7,5.7,0,0,0,3.518-2.639c1.923-3.712,2.486-.876,3.071,1.235a11.82,11.82,0,0,1,.331,3.62c-.417,7.957-2.945,14.857-5.589,21.685-.482,1.246-1.355,1.858-2.2,1.138-4.15-3.544-6.706.239-9.218,3.934-1.835,2.7-3.756,5.186-6.38,6.092-3.231,1.116-4.515,4.23-4.86,8.538-.625,7.78-.975,8.326-6.363,10.167-1.313.448-2.659.728-3.949,1.28-2.074.885-3.462,2.7-4.857,5.264-3.25,5.98-6.609,12.206-12.317,14.019-2.2.7-3.556,2.562-4.319,5.424a20.813,20.813,0,0,1-5.764,9.953A96.011,96.011,0,0,0,266.8,208.407c-2.347,3.475-4.976,6.366-8.4,7.634-6.409,2.37-7.562.844-5.906-8.167,1.4-7.636,4.225-14.312,7.324-20.728,4.481-9.275,8.784-18.6,9.677-30.151a14.376,14.376,0,0,1,.859-3.444c.726-2.129,2.109-4.037,3.619-3.269,3.124,1.587,4.611-1.444,6.564-3.493.65-.684,1.035-2.386,2.045-1.841,1.277.688.088,2.44.6,3.891m52.99,7.4c2.889-2.7,5.836-5.284,8.657-8.118,6.512-6.542,11.5-14.54,12.151-26.459.062-1.136.22-1.979,1.16-2.445,2.882-1.434,4-4.914,4.64-8.731.442-2.64.644-5.358.98-8.034.15-1.193.233-2.126,1.527-2.258,3.111-.317,6.151-.33,9.083,1.339,4.662,2.654,9.356,2.965,14.115.563a6.376,6.376,0,0,1,1.675-.621c2.677-.494,4.084,1.367,3.813,5.16a21.391,21.391,0,0,1-2.622,8.511c-5.248,10.027-11.762,17.97-19.7,23.507-11.279,7.865-23.615,11.6-35.476,17.588m-112.09,76.822c1.045-14.353,5.026-28.121,10.444-41.12,3.5-8.394,7.866-15.795,13.658-21.34,1.362-1.3,2.278-1.587,2.283,1.388.009,5.421.388,10.926-1.829,15.831-.257.568-.632,1.047-.246,1.782,2.682,5.107,1.183,10.4.34,15.662-.826,5.155-2.182,10.219-1.684,15.627.334,3.626-.8,5.851-3.127,6.75-3.252,1.259-5.115,4.425-6.725,8.321-1.793,4.338-3.608,8.736-6.335,12.1-2.3,2.838-3.851,2.349-5.245-1.459-1.463-4-1.7-8.3-1.536-13.543m50.4-146.921c2.267-2.549,4.33-5,6.5-7.256,1.273-1.321,3.043-2.479,4.285-.89,1.815,2.325,3.814,2.206,5.915,2.335,1.473.089,2.7.787,2.8,3.238.091,2.189.329,4.5-2,4.792-.945.118-1.672,1.011-1.527,2.486.377,3.809-1.511,5.327-3.4,6.759-2.122,1.61-4.318,3.027-6.484,4.52a10.064,10.064,0,0,0-4.4,7.568,13.949,13.949,0,0,1-3.376,7.413c-5.528,6.7-11.876,11.078-19.047,13.005a14.369,14.369,0,0,1-8.058.026A4.7,4.7,0,0,1,241.9,125.4a4.983,4.983,0,0,1,3-5.228c2.6-1.431,5.236-2.8,7.759-4.48,1.839-1.229,2.949-3,1.294-6.08-.962-1.789-1.49-4.072.509-5.474,7.381-5.178,13.652-13.293,21.931-16-.254-1.688-1.211-1.1-1.913-2M155.209,151.032c-5.684-.618-10.545-3.218-15.39-5.9-8.339-4.618-16.5-9.919-25.345-12.534-5.282-1.563-10.5-3.837-15.83-4.733-5.728-.963-8.422-9.523-14.107-10.156-.458-.05-1.062-.866-1.266-1.528a14.936,14.936,0,0,0-7.939-9.406c-1.4-.746-2.517-2.3-2.223-5.081,9.329,11.011,20.077,15.422,31.812,15.04,4.287-.14,7.454.542,9.019,7.133.923,3.89,2.87,3.987,5.147.965.942-1.251,1.894-2.46,3.289-1.963,3.548,1.267,7.08,2.625,10.618,3.951,1.4.525,2.2,1.724,1.938,3.854-.486,3.968,1.208,6.007,3.323,7.718a27.943,27.943,0,0,0,7.581,3.91c3.616,1.463,6.676,4.052,9.372,8.734m46.027,56.351c-2.932-1.464-5.006-4.42-6.562-7.99-4.7-10.773-10.78-19.784-17.36-28.258a81.123,81.123,0,0,1-11.132-18.147c-1.4-3.288-2.852-6.582-3.226-11.148,4.136,2.695,8.19,3.854,12.207,5.131,7.38,2.347,12.26,8.576,15.132,18.3,1.3,4.4,2.321,8.913,3.3,13.457,2.106,9.723,3.636,19.761,7.637,28.653m19.437.676c-.2-.246-.293-.3-.317-.389-5.686-21.23,1.9-57.7,14.73-71.035,1.294-1.344,1.728-.3,2.012,1.161a4.425,4.425,0,0,1-1.177,3.91c-3.364,3.74-3.356,8.368-2.113,13.577.746,3.129,1.43,6.429-.01,9.773-1.406-1.851-.287-4.354-1.273-6.8-.426,9.2-1.556,17.65-4.2,25.592-2.654,7.977-5.607,15.759-7.654,24.209M165.467,75.126c1.107.155,2.06.241,3,.426,10.194,2,15.084,12.219,12.468,26.149a13.9,13.9,0,0,0,1.023,8.9,13.305,13.305,0,0,1,1.77,5.057c.063.947.154,2.04-.5,2.6-.714.606-1.485.288-2.173-.342-1.056-.968-1.427-2.553-1.747-4.1-.51-2.471-.909-4.99-1.339-7.495-.3-1.761-.814-2.508-2.21-1.588-2.9,1.913-5.463.582-7.7-2.227-4.052-5.09-5.244-13.511-2.988-20.48.216-.665.927-1.338.326-2.09-.274-.342-.893-.216-1.348-.166-.573.063-1.135.293-1.707.4-1.014.193-1.681-.307-1.833-1.858-.143-1.466.137-2.342,1.329-2.368.531-.012,1.2.066,1.522-1.2l-4.017-.679c1.224-3.236,3.1-4.119,5.136-4.211a2.709,2.709,0,0,1,3.106,2.279c.312,1.713-1.3,1.87-2.113,2.995m45.3,134.508c-9.581-15.639-11.17-36.505-18.861-54.271,3.874,1.855,6.881,3.85,10.041,4.679,4.954,1.3,7.1,5.474,8,12.038,1.691,12.421.547,24.944.822,37.554m44.322-49.869c.066-4.235-.9-7.485-1.3-10.919-.442-3.836.094-6.841,2.536-9.14,2.8-2.634,5.384-5.714,8.167-8.382,2.544-2.436,5.205-4.629,8.245-5.72,1.772-.636,3.372-.528,4.089,2.189.441,1.672,1.141,1.519,2.016,1.25,1.048-.322,2.093-.673,3.7-1.193-6.278,16.331-17.991,21.58-27.46,31.914M89.378,97.376c2.265-5.216,6.979-3.606,8.988-.63,1.6,2.371,1.279,5.4-.575,6.872-.927.737-3.179-.219-2.6,2.289.515,2.222,2.015-.483,3.138-.268,1.021.194,2.423-1.357,2.915,1.1a4.311,4.311,0,0,1-1.612,4.7,8.226,8.226,0,0,1-5.649,1.219c-8.6-1.011-15.569-5.659-19.673-17.068a6.024,6.024,0,0,1,.062-5.245c.556-1.057,1.393-1.5,2.316-1.152,1.747.652.152,2.98,1.249,4.486,1.167-2.115,2.788-1.607,4.388-1.159.949.266,1.941.781,2.829.092,1.879-1.458,2.719-.208,3.288,2.165a27.156,27.156,0,0,0,.936,2.593m259.5,36.767a24.838,24.838,0,0,1-7.416,12.844c-5.952,5.53-12.828,7.983-19.432,11.329-.677.342-1.167.459-1.49-.921-1.3-5.563.345-11.923,3.974-14.71,3.3-2.532,6.634-4.967,9.932-7.5,1.933-1.484,3.87-2.084,6.1-1.335,2.6.874,5.26,1.861,8.332.292m-197.158-6.352c-2.96-2.736-6.117-3.662-9.3-4.576-1.293-.372-3.169-.383-3.636-2.046-1-3.567-2.987-3.319-4.964-3.531-2.5-.267-5.006-.435-7.5-.737-4.164-.5-6.605-2.915-7.506-7.9-.749-4.145-1.594-7.922-5.159-8.371.516-2.709,4.522.509,3.165-4.468.18-.011.36-.016.54-.033,2.4-.215,5.123-1.571,5.8,3.762.173,1.358,1.219,1.921,2.166,2.436a51.156,51.156,0,0,1,5,3.153c5.13,3.628,9.8,8.771,15.854,9.336a1.877,1.877,0,0,1,1.507,2.708c-1.144,3.28.461,4.629,1.829,6.332.81,1.008,2,1.628,2.2,3.932M123.55,90.221c.9-.452,1.32.2,1.6.871,1.259,3,3.016,3.263,5.205,2.307a22.444,22.444,0,0,1,4.543-1.161c5.874-1.22,11.049,1.353,15.714,6.135,2.5,2.567,2.521,4.254.213,7.111a10.814,10.814,0,0,0-2.746,7.885c-1.134-.456-2.056-.8-2.964-1.195-6.938-3.049-12.952-8.984-19.719-12.567-.46-.243-1.133-.706-.98-1.277.792-2.943-.555-5.464-.868-8.11m52.405,51.213c-2.814-.859-5.606-1.931-8.448-2.539-8.248-1.768-13.845-8.075-17.052-18.9-1.176-3.97.338-11.909,2.973-13.826,1.176-.856,2.68-1.625,2.371,1.593a13.642,13.642,0,0,0,2.861,10.132,9.251,9.251,0,0,1,1.989,4.418c.243,1.811.935,2.348,2.209,2.375,3.59.077,6.676,2.435,9.768,4.673.663.481,1.667.976,1.213,2.32-1.438,4.265.08,6.952,2.115,9.752M339.341,94.122c-.417,2.636-2.7,1.475-2.828,4.131-.1,2.1-1.272,3.6-2.35,4.992A29.049,29.049,0,0,1,319.4,113.791a8.8,8.8,0,0,1-4.59.407c-.619-.146-1.486-.005-1.634-1.188a2.8,2.8,0,0,1,1.05-2.274,5.971,5.971,0,0,1,1.5-1.2c1.454-.809,2.018-1.852,1.427-4.28a7.535,7.535,0,0,1,2.148-7.379c2.21-2.177,4.523-4.147,6.8-6.181.315-.28.814-.729,1.029-.569,3.812,2.829,8.1,2.033,12.207,3m-59.168,44.986c2.344-5.853,5.675-8.821,9.1-11.586,4.518-3.65,8.574-7.8,10.508-15.092a8.415,8.415,0,0,1,5.558-5.976c2.685-1.053,5.351-2.13,7.488-4.946,1.41,5.289.467,8.7-3.855,13.114-6.022,6.145-12.089,12.208-18.233,18.107-3,2.879-6.126,5.6-10.563,6.378m-23.506-48.92c-1.6,4.125-3.788,5.418-6.3,4.632-1.62-.507-1.921.553-2.545,2.009-1.487,3.472-.676,6.611.671,9.521,1.474,3.186.793,5.238-1.29,7.012-1.4,1.19-2.725,2.54-4.1,3.795-2.292,2.1-3.031,1.682-3.744-2.186a37.682,37.682,0,0,1,.214-14.07c.658-3.415,1.958-5.716,4.7-6.148,2.058-.324,3.847-1.39,4.432-4.825.374-2.2,1.677-1.787,2.831-1.137,1.5.843,2.929,2.019,5.128,1.4m38.753-7.841c.089-1.338.066-2.75,1.156-3.045,1.343-.363,2.538.186,3.111,2.11.555,1.863.685,5.079,1.528,5.475,3.046,1.43,1.424,3.815.751,5.512-3.017,7.609-7.546,12.555-13.657,14.453-.709.221-1.6-.355-2.1.873-1.352,3.349-3.961,3.609-6.141,4.867-.6.348-1.6,1.279-2.052-.025a2.989,2.989,0,0,1,.953-3.092,5.02,5.02,0,0,1,1.8-1.255c2.692-.752,4.664-2.934,6.463-5.733a32.1,32.1,0,0,1,5.071-6.651,2.192,2.192,0,0,0,.742-2.372c-.595-2.042.278-2.548,1.371-3.109,2.09-1.075,3.618-2.482,1.42-5.779a6.818,6.818,0,0,1-.42-2.23m60.5,18.295c3.906.05,4.167.622,2.869,5.458-.034.126-.065.255-.1.382-2.108,7.492-7.035,11.365-10.829,16.685-.83,1.164-1.1-.144-1.329-1.024a24.233,24.233,0,0,1-.157-8.856c.438-3.88,1.456-7.8.686-11.681-.616-3.108.523-2.787,1.838-2.595,2.488.367,4.865,1.752,7.022,1.631M184.4,130.938a62.856,62.856,0,0,1,12.281,9.523,35.121,35.121,0,0,1,8.128,13.06c.314.874,1.117,1.827.382,2.894s-1.46.008-2.073-.468a111.711,111.711,0,0,0-12.824-8.478,4.108,4.108,0,0,1-2.078-2.567,115.258,115.258,0,0,1-3.816-13.965m-35.508,10.65c-4.92-.457-8.8-3.939-11.653-9.909-.31-.648-.7-1.522-.234-2.19.245-.349.919-.334,1.338-.17,6.407,2.491,12.819,5.009,18.2,10.886a28.611,28.611,0,0,1,6.52,12.192c.2.76.616,1.6.242,2.291-.5.926-1.222.353-1.862.116a4.524,4.524,0,0,1-2.464-2.011c-1.386-2.423-2.729-4.9-4-7.445-1.435-2.871-3.124-4.818-6.083-3.76m-5.016-51.393c-3.164,0-5.76.052-8.354-.029-.83-.026-1.788.07-2.3-1.261a26.257,26.257,0,0,1-1.587-12.625c.449-3.651,3.34-2.412,4.982-3.786a.8.8,0,0,1,.26-.174c2.149-.636,2.848,3.83,5.134,2.911.3-.119,1.089.6,1.1.979a28.567,28.567,0,0,1-.174,4.864,17.036,17.036,0,0,0,.935,9.122M265.7,156.623a34.092,34.092,0,0,1-2.8,13.115c-1.553,3.535-3.259,3.628-5.412.743-.513-.688-.655-2.7-1.874-1.544a2.844,2.844,0,0,0-.606,2.554c.251,1.4.947,1.42,1.8,1.329,2.378-.254,2.959,1.61,2.18,4.341-1.413,4.954-3.493,9.4-5.677,14.559a48.014,48.014,0,0,1-.594-16.808c.949-6.765,2.575-8.57,7.439-8.227.09.005.195-.389.292-.594-1.072-1.442-4.822-3.022.117-4.157.295-.068.448-1.135.717-1.688,1.021-2.1,2.348-3.492,4.42-3.625m-14.5-10.012c1.967,5.663,1.764,10.587-.79,15.22-3.261,5.916-8.084,8.792-12.836,13.538,2.958-11.844,7.9-20.453,13.627-28.759m3.347-61.166c3.45-6.449,7.723-9.122,12.383-10.67,1.461-.484,3.474-2.591,4.474-.35,1.127,2.525.491,5.857-.593,8.548-.969,2.407-2.718,2.822-4.515,2.846-3.738.049-7.426-1.444-11.749-.374m2.384,47.793c-5.152,4.928-9.713,9.739-13.163,16.5-1.2-2.652-.9-5.02-.9-7.29,0-2.972-.557-6.684.479-8.673.786-1.508,3.687-.906,5.654-1.086,2.426-.222,4.89-1.062,7.927.544m40.39-23.291c3.6-7.652,8.517-13.425,13.617-18.969,1.914-2.081,2.362-.8,2.62,1.7.436,4.218-.665,7.114-3.77,9.556-3.949,3.1-8.459,4.472-12.467,7.716M145.97,84.227a14.026,14.026,0,0,1,.477-3.97c.344-1.328.732-1.859,1.611-.806,3.67,4.4,7.225,8.95,9.724,14.864.353.835,1.1,1.843-.261,2.4-4.5,1.853-11.516-5.718-11.551-12.491m68.29-5.445c-.073-2.065-.214-3.94-.18-5.808a2.442,2.442,0,0,1,1.59-2.535c.464-.138,1.342-.1,1.25.368-.636,3.266,1.42,7.156-.566,9.729-1.361,1.764-1.462,2.879-.935,5.042a21.031,21.031,0,0,1,.182,4.829c0,1.063,0,2.333-.969,2.6-.781.213-1.195-.789-1.542-1.559-2.293-5.07-3.073-10.735-3.159-16.642-.012-.777-.043-1.787.649-2.034.64-.228,1.021.584,1.4,1.186.886,1.4.993,3.523,2.275,4.825m66.879,46.061c-1.177-.181-2.8-.2-3.256-1.821-.527-1.858,1.239-2.3,2.027-3.289a16.689,16.689,0,0,1,2.419-2.173,19.506,19.506,0,0,1,7.664-4.436c.98-.246,1.916.037,2.371,1.6.476,1.64-.421,2.087-1.126,2.768-1.027.992-2.04,2.016-3.025,3.089-2.078,2.266-4.277,4.105-7.074,4.259M199.817,74.965c-.314.824.919,2.743-.6,3.432-2.12.959-4.525,1.837-6.183-.9s-.564-5.649.849-8.033c1.354-2.283,3.117-3.544,5.315-3.2,1.477.227,2.471.765,1.239,3.169-.776,1.515-.632,3.339-.616,5.54M181.029,69.35a7.979,7.979,0,0,1,4.791.23,2.755,2.755,0,0,1,1.795,3.169c-.528,3.3-2.892,4.026-4.572,5.649-1.265,1.222-1.884-.426-2.5-1.6a5.737,5.737,0,0,0-3.35-2.908c-.742-.263-2.231.874-2.015-1.621.18-2.1.9-3.579,2.64-3.34,1.331.183,2.663.347,3.214.419m-22.014,42.912c5.272,4.361,12.341,4.931,15.23,14.158-5.967-2.856-12.5-4.483-15.23-14.158M267.068,88.936a18.861,18.861,0,0,1-5.295,5.034c-3.322,2.428-6.828,4.351-9.928,7.393-.676.663-1.328,2.852-2.269,1.341-.956-1.537.128-3.079,1.053-4.033,1.391-1.436,2.916-2.609,4.362-3.944.96-.887,2.2-1.582,2.76-2.85,2.286-5.152,5.453-3.785,9.317-2.941M219.934,154.65a33.035,33.035,0,0,1,1.081-9.61c1.051-4.3,1.387-9.652,5.971-9.9.4-.021.769-1.273,1.335-2.277.193,9.845-5.12,15-8.387,21.784M404.415,85.511c2.386,6.941.025,15.222-4.492,17.006-1.892.748-2.634.017-2-2.711,1.276-5.5,3.938-9.687,6.492-14.295m-232.5,29.222c-2.071-1.047-3.4-1.7-4.723-2.39-2.069-1.071-4.217-1.9-6.038-3.751-2.229-2.264-1.279-4.666-.07-6.984,1.484-2.847,2.694-.946,3.683.693,2.279,3.776,4.44,7.7,7.149,12.432m223.02-17.441c.627-4.828,1.171-9.346,1.819-13.833.225-1.557,4.791-2.783,5.592-1.656.653.918.329,1.643-.043,2.49-.859,1.96-1.613,4.016-2.532,5.915-1.273,2.627-2.32,5.612-4.836,7.084m-164.284,3.73c3.874,2.839,4.69,7.34,5.078,12.089.14,1.716.087,3.932-1.418,4.343-1.6.437-2.415-1.428-2.7-3.387a88.337,88.337,0,0,1-.963-13.045M206.832,75.37c-.063,3.6-1.746,6.83-3.35,6.432-2.218-.551-2.9-3.053-2.857-5.767.043-2.811,1.056-5.26,3.212-5.357,2.124-.095,2.858,2.29,3,4.692M315.7,155.257c-.58,6.588-4.443,9.9-11.776,11.042,1.857-8.079,7.9-6.31,11.776-11.042m72.61-71.839c2.151.409,3.545,2.283,4.4,5.107.309,1.017.675,2.155.155,3.092-.553,1-1.411.559-2.155.259a14.447,14.447,0,0,1-3.851-2.775c-.853-.751-1.7-1.372-1.286-3.131.425-1.822,1.352-2.539,2.735-2.552M151.63,69.566c.846,6.064,3.524,9.278,6.28,12.435a11.254,11.254,0,0,1,2.649,4.717c.318,1.247,1.007,2.955.109,3.726-1.092.936-2.088-.581-2.453-1.94-1.2-4.464-3.539-7.661-5.764-11.009-1.361-2.047-1.679-4.363-.82-7.929M226.49,71c2.024.047,3.958.473,4.086,3.815.094,2.45-.916,4.479-2.8,4.888-1.639.354-3.544-3.678-3.5-6.916.036-2.652,1.5-1.3,2.212-1.788m-7.02,4.258c2.291,2,2.071,5.57,3.5,7.715.39.585,1.607.229,1.156,1.72a1.589,1.589,0,0,1-1.734,1.108,5.013,5.013,0,0,0-2.282.207c-2.749,1.443-2.459-1.193-2.131-3.291.366-2.339,1.286-4.482,1.491-7.459M118.048,113.108c-3.951.328-6.373-1.674-6.789-5.782a9.131,9.131,0,0,1,.295-4.7c.062-.137.577-.068.757.131,1.177,1.3,1.094,2.991.7,4.781-.043.191.124.475.2.713,2.922-2.491,3.537-1.874,4.842,4.854m117.34-34.467c.724-2.066.828-5.071,2.4-6.5,1-.911,3.639,2.706,3.67,4.713.09,5.9-3.792,1.226-5.127,3.726-.329.616-.841-.779-.938-1.942m8.426,7c1.054-4.612,3.277-6.2,6.181-6.33.864-.038,2.194-.914,2.508.705a3.661,3.661,0,0,1-1.726,3.79c-2.126,1.259-4.409,1.426-6.963,1.835M129.751,77.881c0,2.041.011,3.79-.006,5.541-.006.639.088,1.371-.428,1.767-.97.743-4.877-1.631-5.165-3.289-.326-1.88-.68-4.122,1.727-3.011,1.318.608,2.372-.751,3.871-1.008m90.762,18.254c-1.255-4.319-.124-6.989,3.426-7.724,1.2-.25,3.12-1.5,3.567.506.421,1.882-1.463,2.755-2.7,3.349a10.131,10.131,0,0,0-4.293,3.869m19.051,46.609c.357,5.016,1.279,10.2-2.118,14.387-1.573-5.79.16-10.14,2.118-14.387M272.381,77.7c.329-1.422-.626-3.484,1.061-4.055,1.282-.434,3.659,2.87,3.607,4.932-.063,2.5-1.452,2.91-2.79,3.18-2.718.547-1.185-2.735-1.877-4.056M128.8,69.611c-.9,1.9-1.606,3.523-.428,5.5.56.94-.048,1.9-.9,1.646a5.69,5.69,0,0,1-4.28-4.7c-.244-2.286,2.16-1.677,3.366-2.386.553-.325,1.28-.056,2.238-.056M314.255,95.5c-.019-2.1,1.383-4.1,2.976-4.112.96-.005,1.986.095,2.2,1.865.1.808-3.27,5.329-3.837,5.077-.917-.407-1.29-1.508-1.335-2.83M233.4,131.7c.369-2.232.49-4.8,2.612-5.155,1.257-.208,2.133.987,2.067,2.65-.119,2.937-1.928,3.4-3.521,3.932-.725.244-1.4.072-1.157-1.427M109.944,109.022c-1.8-2.318-4.457-2.447-4.495-6.035-.017-1.649,1.392-1.827,2.43-2.051.564,1.215-.553,2.428.118,3.495,1.08-.012.325-2.408,1.692-2.346a19.965,19.965,0,0,1,.254,6.937M60.327,98.311c1.755.525,3.417-.135,5.094-.194.828-.028,1.583-.034,1.191,1.664-.232,1,.208,2.861-1.205,2.431-1.869-.567-3.949-.718-5.079-3.9M208.415,78.516c.854,4.125-.127,7.634.485,11.141-3.238-1.5-3.443-5.052-.485-11.141m36.856-2.529c.571-1.91,1.493-3.907,3.52-4.089.581-.052,1.684-.363,1.471,1.065a5.431,5.431,0,0,1-3.967,4.681c-.625.223-1.188.1-1.024-1.657m-130.95,44.374c-.084-1,.252-1.446.825-1.188,1.638.735,3.46,1.442,4.06,3.939.246,1.024-.984,1.477-1.765,1.364-1.782-.257-2.639-1.991-3.12-4.114m64.705,5.577c1.524.487,1.878,2.08,1.752,3.941-.071,1.053.46,3.06-.654,2.936-1.386-.155-2.143-2.033-2.209-4.1-.038-1.18-.059-2.469,1.111-2.78m172.938,3.111c-.6-2.619-1.621-5.123.382-7.354.571-.638,1.649-1.357,1.562.528-.11,2.368.357,5.286-1.944,6.826M228.619,93.905a9.031,9.031,0,0,1-.217,1.382c-.809,2.584-2.51,3.037-4.221,3.343-.424.076-.629-.566-.522-1.145.434-2.335,1.922-2.774,3.249-3.4.483-.228,1-.9,1.71-.181m13.593-10.518c.364,4.718-.9,6.754-3.891,6.778a16.257,16.257,0,0,1,3.891-6.778M342.94,126.07c-.6.215-1.024-.14-.885-.964.326-1.925.516-4.1,2.1-4.9.873-.44,1.224.559,1.222,1.563,0,2.295-.861,3.732-2.434,4.3M335,130.749c-1.614,3.258-3.157,5.1-5.786,5.1.976-3.756,3.029-4.407,5.786-5.1M148.845,77.809c-1.969-1.8-1.553-4.28-2.047-6.24-.169-.673-.447-1.681.39-1.976.646-.228,1.155.375,1.4,1.121.7,2.158.512,4.4.258,7.1m26.129-9.084c-1.191,2.905-2.484,3.692-4.27,2.668a1.978,1.978,0,0,1-.977-1.84c.055-1.242.8-.813,1.318-.822,1.143-.019,2.285-.005,3.929-.005m219.68,14.7c-.2.7.521,2.369-.77,2.252-1.121-.1-1.833-1.707-2.2-2.864-.391-1.225.8-1.483,1.516-1.653,1.147-.27,1.552.617,1.456,2.264M190.874,66.137c.489,3.378.1,5.173-1.583,5.71-1.241.4-1.368-1.57-1.368-2.4,0-3.153,2.435-.162,2.95-3.309m15.935,44.818c-.582-1.242-.874-1.754-1.082-2.327a5,5,0,0,1-.175-4.137c.242-.488.653-.7.986-.375,1.058,1.045.77,2.571.617,4.022-.069.648-.158,1.291-.346,2.818M155.473,67.629c1.357,1.439,1.172,3.038,1.281,4.449.087,1.125-.065,2.332-1.191,2.059-1.077-.261-.692-1.379-.43-2.2a13.381,13.381,0,0,0,.339-4.311M243.1,75.071c-1.33-1.961-2.729-2.625-2.061-5.032.172-.619.644-1.464,1-1.148,1.438,1.29.781,3.362,1.064,6.18m-3.489,18.563c.477-2.326,1.582-3.036,2.835-3.124.576-.04.494,1.068.338,1.58-.6,1.949-1.7,2.206-3.172,1.545" transform="translate(0)" fill="#212121"/>
      </g>
    </g>
  </g>
</svg>
