<svg xmlns="http://www.w3.org/2000/svg" xmlns:xlink="http://www.w3.org/1999/xlink" width="508.5" height="185" viewBox="0 0 508.5 185">
  <defs>
    <filter id="Safari4win" x="0" y="24" width="396" height="161" filterUnits="userSpaceOnUse">
      <feOffset input="SourceAlpha"/>
      <feGaussianBlur stdDeviation="15" result="blur"/>
      <feFlood flood-opacity="0.161"/>
      <feComposite operator="in" in2="blur"/>
      <feComposite in="SourceGraphic"/>
    </filter>
    <filter id="Linie_3" x="29.5" y="78.5" width="479" height="92" filterUnits="userSpaceOnUse">
      <feOffset input="SourceAlpha"/>
      <feGaussianBlur stdDeviation="15" result="blur-2"/>
      <feFlood flood-opacity="0.161"/>
      <feComposite operator="in" in2="blur-2"/>
      <feComposite in="SourceGraphic"/>
    </filter>
    <filter id="Pfad_31" x="345.516" y="45.944" width="95.935" height="92" filterUnits="userSpaceOnUse">
      <feOffset input="SourceAlpha"/>
      <feGaussianBlur stdDeviation="15" result="blur-3"/>
      <feFlood flood-opacity="0.161"/>
      <feComposite operator="in" in2="blur-3"/>
      <feComposite in="SourceGraphic"/>
    </filter>
    <filter id="Pfad_32" x="297" y="0" width="170" height="170" filterUnits="userSpaceOnUse">
      <feOffset input="SourceAlpha"/>
      <feGaussianBlur stdDeviation="15" result="blur-4"/>
      <feFlood flood-opacity="0.161"/>
      <feComposite operator="in" in2="blur-4"/>
      <feComposite in="SourceGraphic"/>
    </filter>
    <filter id="Pfad_33" x="300.602" y="53.765" width="93.968" height="93.968" filterUnits="userSpaceOnUse">
      <feOffset input="SourceAlpha"/>
      <feGaussianBlur stdDeviation="15" result="blur-5"/>
      <feFlood flood-opacity="0.161"/>
      <feComposite operator="in" in2="blur-5"/>
      <feComposite in="SourceGraphic"/>
    </filter>
    <filter id="Pfad_34" x="300.602" y="49.144" width="93.968" height="93.967" filterUnits="userSpaceOnUse">
      <feOffset input="SourceAlpha"/>
      <feGaussianBlur stdDeviation="15" result="blur-6"/>
      <feFlood flood-opacity="0.161"/>
      <feComposite operator="in" in2="blur-6"/>
      <feComposite in="SourceGraphic"/>
    </filter>
    <filter id="Pfad_35" x="300.602" y="44.521" width="93.968" height="93.968" filterUnits="userSpaceOnUse">
      <feOffset input="SourceAlpha"/>
      <feGaussianBlur stdDeviation="15" result="blur-7"/>
      <feFlood flood-opacity="0.161"/>
      <feComposite operator="in" in2="blur-7"/>
      <feComposite in="SourceGraphic"/>
    </filter>
    <filter id="Pfad_36" x="300.602" y="39.9" width="93.968" height="93.968" filterUnits="userSpaceOnUse">
      <feOffset input="SourceAlpha"/>
      <feGaussianBlur stdDeviation="15" result="blur-8"/>
      <feFlood flood-opacity="0.161"/>
      <feComposite operator="in" in2="blur-8"/>
      <feComposite in="SourceGraphic"/>
    </filter>
    <filter id="Pfad_37" x="300.602" y="35.278" width="93.968" height="93.967" filterUnits="userSpaceOnUse">
      <feOffset input="SourceAlpha"/>
      <feGaussianBlur stdDeviation="15" result="blur-9"/>
      <feFlood flood-opacity="0.161"/>
      <feComposite operator="in" in2="blur-9"/>
      <feComposite in="SourceGraphic"/>
    </filter>
  </defs>
  <g id="Gruppe_10" data-name="Gruppe 10" transform="translate(-762 -7)">
    <g transform="matrix(1, 0, 0, 1, 762, 7)" filter="url(#Safari4win)">
      <text id="Safari4win-2" data-name="Safari4win" transform="translate(45 69)" fill="#212121" font-size="60" font-family="Roboto-Light, Roboto" font-weight="300"><tspan x="-139.102" y="56">Safari4win</tspan></text>
    </g>
    <g transform="matrix(1, 0, 0, 1, 762, 7)" filter="url(#Linie_3)">
      <line id="Linie_3-2" data-name="Linie 3" x2="387" transform="translate(75.5 124.5)" fill="none" stroke="#212121" stroke-linecap="round" stroke-width="2"/>
    </g>
    <g id="noun_safari_park_car_2478262" data-name="noun_safari park car_2478262" transform="translate(1094 44)">
      <g transform="matrix(1, 0, 0, 1, -332, -37)" filter="url(#Pfad_31)">
        <path id="Pfad_31-2" data-name="Pfad 31" d="M63.45,53.944H59.516a1,1,0,0,0,0,2H63.45a1,1,0,0,0,0-2Z" transform="translate(332 37)" fill="#212121"/>
      </g>
      <g transform="matrix(1, 0, 0, 1, -332, -37)" filter="url(#Pfad_32)">
        <path id="Pfad_32-2" data-name="Pfad 32" d="M13.812,69.471h3.377A3.763,3.763,0,0,0,19,68.992V72.53H18a1,1,0,0,0-1,1v7.34a1,1,0,0,0,1,1h3.887a10.13,10.13,0,0,0,19.861,0H65.139A10.13,10.13,0,0,0,85,81.87h4a1,1,0,0,0,1-1V73.53a1,1,0,0,0-1-1h-.875V59.6a7.858,7.858,0,0,0-6.592-7.786L70.115,48.73l-3.45-18.365A5.99,5.99,0,0,0,60.8,25.53h-.114V19.379H62.2a.941.941,0,0,0,.123-.025,5.836,5.836,0,0,0,4.667,2.339,1,1,0,0,0,1-1V11a1,1,0,0,0-1-1,5.836,5.836,0,0,0-4.667,2.339.941.941,0,0,0-.123-.025H24.262a1,1,0,0,0-1,1v5.064a1,1,0,0,0,1,1h2.3v6.38a5.962,5.962,0,0,0-4.16,4.08.954.954,0,0,0-.024.1L20.4,41.392a3.8,3.8,0,0,0-3.208-1.771H13.812A3.816,3.816,0,0,0,10,43.433V65.659A3.816,3.816,0,0,0,13.812,69.471ZM19,79.87V74.53h4.225a10.056,10.056,0,0,0-1.538,5.34ZM31.817,88a8.131,8.131,0,1,1,8.131-8.13A8.14,8.14,0,0,1,31.817,88Zm10.131-8.13a10.056,10.056,0,0,0-1.538-5.34H66.477a10.056,10.056,0,0,0-1.538,5.34ZM75.069,88A8.131,8.131,0,1,1,83.2,79.87,8.14,8.14,0,0,1,75.069,88ZM88,79.87H85.2a10.056,10.056,0,0,0-1.538-5.34H88ZM81.163,53.781a5.869,5.869,0,0,1,4.962,5.82V72.53H82.031a10.08,10.08,0,0,0-13.924,0H38.779a10.08,10.08,0,0,0-13.924,0H21v-22H40.67V64.848a1,1,0,0,0,1,1H69.248a1,1,0,0,0,1-1V50.838l10.813,2.922A.96.96,0,0,0,81.163,53.781ZM42.67,50.532H68.248V63.848H42.67ZM64.7,30.741l3.342,17.791H42.67v-21H60.8A3.986,3.986,0,0,1,64.7,30.741Zm1.285-18.609v7.43a3.847,3.847,0,0,1,0-7.43ZM25.262,14.314H61.349a5.678,5.678,0,0,0,0,3.064H25.262Zm33.42,5.064V25.53H28.566V19.379ZM24.343,30.341a3.966,3.966,0,0,1,3.781-2.812H40.67v21H21.188ZM12,43.433a1.813,1.813,0,0,1,1.812-1.812h3.377A1.813,1.813,0,0,1,19,43.433V65.659a1.814,1.814,0,0,1-1.812,1.812H13.812A1.814,1.814,0,0,1,12,65.659Z" transform="translate(332 35)" fill="#212121"/>
      </g>
      <g transform="matrix(1, 0, 0, 1, -332, -37)" filter="url(#Pfad_33)">
        <path id="Pfad_33-2" data-name="Pfad 33" d="M14.6,65.733a1,1,0,0,0,.707-.293l1.968-1.968a1,1,0,0,0-1.414-1.414l-1.968,1.968a1,1,0,0,0,.707,1.707Z" transform="translate(332 37)" fill="#212121"/>
      </g>
      <g transform="matrix(1, 0, 0, 1, -332, -37)" filter="url(#Pfad_34)">
        <path id="Pfad_34-2" data-name="Pfad 34" d="M14.6,61.111a1,1,0,0,0,.707-.293l1.968-1.967a1,1,0,0,0-1.414-1.414L13.895,59.4a1,1,0,0,0,.707,1.707Z" transform="translate(332 37)" fill="#212121"/>
      </g>
      <g transform="matrix(1, 0, 0, 1, -332, -37)" filter="url(#Pfad_35)">
        <path id="Pfad_35-2" data-name="Pfad 35" d="M14.6,56.489a1,1,0,0,0,.707-.293l1.968-1.968a1,1,0,0,0-1.414-1.414l-1.968,1.968a1,1,0,0,0,.707,1.707Z" transform="translate(332 37)" fill="#212121"/>
      </g>
      <g transform="matrix(1, 0, 0, 1, -332, -37)" filter="url(#Pfad_36)">
        <path id="Pfad_36-2" data-name="Pfad 36" d="M14.6,51.868a1,1,0,0,0,.707-.293l1.968-1.968a1,1,0,0,0-1.414-1.414l-1.968,1.968a1,1,0,0,0,.707,1.707Z" transform="translate(332 37)" fill="#212121"/>
      </g>
      <g transform="matrix(1, 0, 0, 1, -332, -37)" filter="url(#Pfad_37)">
        <path id="Pfad_37-2" data-name="Pfad 37" d="M14.6,47.246a1,1,0,0,0,.707-.293l1.968-1.967a1,1,0,0,0-1.414-1.414l-1.968,1.967a1,1,0,0,0,.707,1.707Z" transform="translate(332 37)" fill="#212121"/>
      </g>
    </g>
  </g>
</svg>
